# procedural mesh, generated by comp_vision_sim/tools/make_assets.py
v -0.060000 0.025000 0.050000
v 0.060000 0.025000 0.050000
v 0.060000 -0.025000 0.050000
v -0.060000 -0.025000 0.050000
v -0.060000 -0.025000 0.000000
v 0.060000 -0.025000 0.000000
v 0.060000 0.025000 0.000000
v -0.060000 0.025000 0.000000
v 0.060000 0.025000 0.050000
v -0.060000 0.025000 0.050000
v -0.060000 0.025000 0.000000
v 0.060000 0.025000 0.000000
v -0.060000 -0.025000 0.050000
v 0.060000 -0.025000 0.050000
v 0.060000 -0.025000 0.000000
v -0.060000 -0.025000 0.000000
v 0.060000 -0.025000 0.050000
v 0.060000 0.025000 0.050000
v 0.060000 0.025000 0.000000
v 0.060000 -0.025000 0.000000
v -0.060000 0.025000 0.050000
v -0.060000 -0.025000 0.050000
v -0.060000 -0.025000 0.000000
v -0.060000 0.025000 0.000000
vt 0.00000 1.00000
vt 0.46875 1.00000
vt 0.46875 0.60938
vt 0.00000 0.60938
vt 0.50000 0.60938
vt 0.96875 0.60938
vt 0.96875 0.21875
vt 0.50000 0.21875
vt 0.00000 0.60938
vt 0.46875 0.60938
vt 0.46875 0.21875
vt 0.00000 0.21875
vt 0.50000 1.00000
vt 0.96875 1.00000
vt 0.96875 0.60938
vt 0.50000 0.60938
vt 0.00000 0.19922
vt 0.09766 0.19922
vt 0.09766 0.00391
vt 0.00000 0.00391
vt 0.11719 0.19922
vt 0.21484 0.19922
vt 0.21484 0.00391
vt 0.11719 0.00391
vn 0.0000 0.0000 1.0000
vn 0.0000 0.0000 1.0000
vn 0.0000 0.0000 1.0000
vn 0.0000 0.0000 1.0000
vn 0.0000 0.0000 -1.0000
vn 0.0000 0.0000 -1.0000
vn 0.0000 0.0000 -1.0000
vn 0.0000 0.0000 -1.0000
vn 0.0000 1.0000 0.0000
vn 0.0000 1.0000 0.0000
vn 0.0000 1.0000 0.0000
vn 0.0000 1.0000 0.0000
vn 0.0000 -1.0000 0.0000
vn 0.0000 -1.0000 0.0000
vn 0.0000 -1.0000 0.0000
vn 0.0000 -1.0000 0.0000
vn 1.0000 0.0000 0.0000
vn 1.0000 0.0000 0.0000
vn 1.0000 0.0000 0.0000
vn 1.0000 0.0000 0.0000
vn -1.0000 0.0000 0.0000
vn -1.0000 0.0000 0.0000
vn -1.0000 0.0000 0.0000
vn -1.0000 0.0000 0.0000
f 1/1/1 3/3/3 2/2/2
f 1/1/1 4/4/4 3/3/3
f 5/5/5 7/7/7 6/6/6
f 5/5/5 8/8/8 7/7/7
f 9/9/9 11/11/11 10/10/10
f 9/9/9 12/12/12 11/11/11
f 13/13/13 15/15/15 14/14/14
f 13/13/13 16/16/16 15/15/15
f 17/17/17 19/19/19 18/18/18
f 17/17/17 20/20/20 19/19/19
f 21/21/21 23/23/23 22/22/22
f 21/21/21 24/24/24 23/23/23
