# procedural mesh, generated by comp_vision_sim/tools/make_assets.py
v -0.005000 -0.007000 0.000000
v -0.005000 -0.007000 0.000000
v -0.005000 -0.007000 0.000000
v -0.005000 -0.007000 0.000000
v -0.005000 -0.007000 0.000000
v -0.005000 -0.007000 0.000000
v -0.005000 -0.007000 0.000000
v -0.005000 -0.007000 0.000000
v -0.005000 -0.007000 0.000000
v -0.005000 -0.007000 0.000000
v -0.005000 -0.007000 0.000000
v -0.005000 -0.007000 0.000000
v -0.005000 -0.007000 0.000000
v -0.005000 -0.007000 0.000000
v -0.005000 -0.007000 0.000000
v -0.005000 -0.007000 0.000000
v -0.005000 -0.007000 0.000000
v -0.005000 -0.007000 0.000000
v -0.005000 -0.007000 0.000000
v -0.005000 -0.007000 0.000000
v -0.005000 -0.007000 0.000000
v -0.005000 -0.007000 0.000000
v -0.005000 -0.007000 0.000000
v -0.005000 -0.007000 0.000000
v -0.005000 -0.007000 0.000000
v -0.005000 -0.007000 0.000000
v -0.005000 -0.007000 0.000000
v -0.005000 -0.007000 0.000000
v -0.005000 -0.007000 0.000000
v -0.005000 -0.007000 0.000000
v -0.005000 -0.007000 0.000000
v -0.005000 -0.007000 0.000000
v -0.005000 -0.007000 0.000000
v -0.005000 -0.007000 0.000000
v -0.005000 -0.007000 0.000000
v -0.005000 -0.007000 0.000000
v -0.005000 -0.007000 0.000000
v -0.005000 -0.007000 0.000000
v -0.005000 -0.007000 0.000000
v -0.005000 -0.007000 0.000000
v -0.005000 -0.007000 0.000000
v -0.013582 -0.007000 0.000058
v -0.013529 -0.009057 0.000058
v -0.013369 -0.009891 0.000058
v -0.013101 -0.010504 0.000058
v -0.012719 -0.010988 0.000058
v -0.012216 -0.011374 0.000058
v -0.011579 -0.011678 0.000058
v -0.010782 -0.011909 0.000058
v -0.009771 -0.012072 0.000058
v -0.008394 -0.012169 0.000058
v -0.005000 -0.012201 0.000058
v -0.001606 -0.012169 0.000058
v -0.000229 -0.012072 0.000058
v 0.000782 -0.011909 0.000058
v 0.001579 -0.011678 0.000058
v 0.002216 -0.011374 0.000058
v 0.002719 -0.010988 0.000058
v 0.003101 -0.010504 0.000058
v 0.003369 -0.009891 0.000058
v 0.003529 -0.009057 0.000058
v 0.003582 -0.007000 0.000058
v 0.003529 -0.004943 0.000058
v 0.003369 -0.004109 0.000058
v 0.003101 -0.003496 0.000058
v 0.002719 -0.003012 0.000058
v 0.002216 -0.002626 0.000058
v 0.001579 -0.002322 0.000058
v 0.000782 -0.002091 0.000058
v -0.000229 -0.001928 0.000058
v -0.001606 -0.001831 0.000058
v -0.005000 -0.001799 0.000058
v -0.008394 -0.001831 0.000058
v -0.009771 -0.001928 0.000058
v -0.010782 -0.002091 0.000058
v -0.011579 -0.002322 0.000058
v -0.012216 -0.002626 0.000058
v -0.012719 -0.003012 0.000058
v -0.013101 -0.003496 0.000058
v -0.013369 -0.004109 0.000058
v -0.013529 -0.004943 0.000058
v -0.013582 -0.007000 0.000058
v -0.016236 -0.007000 0.000234
v -0.016167 -0.009693 0.000234
v -0.015958 -0.010786 0.000234
v -0.015606 -0.011588 0.000234
v -0.015106 -0.012221 0.000234
v -0.014448 -0.012726 0.000234
v -0.013614 -0.013125 0.000234
v -0.012571 -0.013428 0.000234
v -0.011246 -0.013641 0.000234
v -0.009444 -0.013768 0.000234
v -0.005000 -0.013810 0.000234
v -0.000556 -0.013768 0.000234
v 0.001246 -0.013641 0.000234
v 0.002571 -0.013428 0.000234
v 0.003614 -0.013125 0.000234
v 0.004448 -0.012726 0.000234
v 0.005106 -0.012221 0.000234
v 0.005606 -0.011588 0.000234
v 0.005958 -0.010786 0.000234
v 0.006167 -0.009693 0.000234
v 0.006236 -0.007000 0.000234
v 0.006167 -0.004307 0.000234
v 0.005958 -0.003214 0.000234
v 0.005606 -0.002412 0.000234
v 0.005106 -0.001779 0.000234
v 0.004448 -0.001274 0.000234
v 0.003614 -0.000875 0.000234
v 0.002571 -0.000572 0.000234
v 0.001246 -0.000359 0.000234
v -0.000556 -0.000232 0.000234
v -0.005000 -0.000190 0.000234
v -0.009444 -0.000232 0.000234
v -0.011246 -0.000359 0.000234
v -0.012571 -0.000572 0.000234
v -0.013614 -0.000875 0.000234
v -0.014448 -0.001274 0.000234
v -0.015106 -0.001779 0.000234
v -0.015606 -0.002412 0.000234
v -0.015958 -0.003214 0.000234
v -0.016167 -0.004307 0.000234
v -0.016236 -0.007000 0.000234
v -0.018043 -0.007000 0.000534
v -0.017963 -0.010127 0.000534
v -0.017720 -0.011394 0.000534
v -0.017312 -0.012326 0.000534
v -0.016732 -0.013060 0.000534
v -0.015968 -0.013647 0.000534
v -0.015000 -0.014110 0.000534
v -0.013788 -0.014462 0.000534
v -0.012251 -0.014709 0.000534
v -0.010159 -0.014856 0.000534
v -0.005000 -0.014905 0.000534
v 0.000159 -0.014856 0.000534
v 0.002251 -0.014709 0.000534
v 0.003788 -0.014462 0.000534
v 0.005000 -0.014110 0.000534
v 0.005968 -0.013647 0.000534
v 0.006732 -0.013060 0.000534
v 0.007312 -0.012326 0.000534
v 0.007720 -0.011394 0.000534
v 0.007963 -0.010127 0.000534
v 0.008043 -0.007000 0.000534
v 0.007963 -0.003873 0.000534
v 0.007720 -0.002606 0.000534
v 0.007312 -0.001674 0.000534
v 0.006732 -0.000940 0.000534
v 0.005968 -0.000353 0.000534
v 0.005000 0.000110 0.000534
v 0.003788 0.000462 0.000534
v 0.002251 0.000709 0.000534
v 0.000159 0.000856 0.000534
v -0.005000 0.000905 0.000534
v -0.010159 0.000856 0.000534
v -0.012251 0.000709 0.000534
v -0.013788 0.000462 0.000534
v -0.015000 0.000110 0.000534
v -0.015968 -0.000353 0.000534
v -0.016732 -0.000940 0.000534
v -0.017312 -0.001674 0.000534
v -0.017720 -0.002606 0.000534
v -0.017963 -0.003873 0.000534
v -0.018043 -0.007000 0.000534
v -0.019364 -0.007000 0.000971
v -0.019275 -0.010443 0.000971
v -0.019008 -0.011839 0.000971
v -0.018559 -0.012866 0.000971
v -0.017920 -0.013674 0.000971
v -0.017079 -0.014320 0.000971
v -0.016013 -0.014830 0.000971
v -0.014678 -0.015217 0.000971
v -0.012985 -0.015490 0.000971
v -0.010681 -0.015652 0.000971
v -0.005000 -0.015706 0.000971
v 0.000681 -0.015652 0.000971
v 0.002985 -0.015490 0.000971
v 0.004678 -0.015217 0.000971
v 0.006013 -0.014830 0.000971
v 0.007079 -0.014320 0.000971
v 0.007920 -0.013674 0.000971
v 0.008559 -0.012866 0.000971
v 0.009008 -0.011839 0.000971
v 0.009275 -0.010443 0.000971
v 0.009364 -0.007000 0.000971
v 0.009275 -0.003557 0.000971
v 0.009008 -0.002161 0.000971
v 0.008559 -0.001134 0.000971
v 0.007920 -0.000326 0.000971
v 0.007079 0.000320 0.000971
v 0.006013 0.000830 0.000971
v 0.004678 0.001217 0.000971
v 0.002985 0.001490 0.000971
v 0.000681 0.001652 0.000971
v -0.005000 0.001706 0.000971
v -0.010681 0.001652 0.000971
v -0.012985 0.001490 0.000971
v -0.014678 0.001217 0.000971
v -0.016013 0.000830 0.000971
v -0.017079 0.000320 0.000971
v -0.017920 -0.000326 0.000971
v -0.018559 -0.001134 0.000971
v -0.019008 -0.002161 0.000971
v -0.019275 -0.003557 0.000971
v -0.019364 -0.007000 0.000971
v -0.020326 -0.007000 0.001571
v -0.020231 -0.010674 0.001571
v -0.019946 -0.012163 0.001571
v -0.019466 -0.013258 0.001571
v -0.018785 -0.014121 0.001571
v -0.017887 -0.014811 0.001571
v -0.016750 -0.015354 0.001571
v -0.015326 -0.015768 0.001571
v -0.013519 -0.016058 0.001571
v -0.011062 -0.016231 0.001571
v -0.005000 -0.016288 0.001571
v 0.001062 -0.016231 0.001571
v 0.003519 -0.016058 0.001571
v 0.005326 -0.015768 0.001571
v 0.006750 -0.015354 0.001571
v 0.007887 -0.014811 0.001571
v 0.008785 -0.014121 0.001571
v 0.009466 -0.013258 0.001571
v 0.009946 -0.012163 0.001571
v 0.010231 -0.010674 0.001571
v 0.010326 -0.007000 0.001571
v 0.010231 -0.003326 0.001571
v 0.009946 -0.001837 0.001571
v 0.009466 -0.000742 0.001571
v 0.008785 0.000121 0.001571
v 0.007887 0.000811 0.001571
v 0.006750 0.001354 0.001571
v 0.005326 0.001768 0.001571
v 0.003519 0.002058 0.001571
v 0.001062 0.002231 0.001571
v -0.005000 0.002288 0.001571
v -0.011062 0.002231 0.001571
v -0.013519 0.002058 0.001571
v -0.015326 0.001768 0.001571
v -0.016750 0.001354 0.001571
v -0.017887 0.000811 0.001571
v -0.018785 0.000121 0.001571
v -0.019466 -0.000742 0.001571
v -0.019946 -0.001837 0.001571
v -0.020231 -0.003326 0.001571
v -0.020326 -0.007000 0.001571
v -0.020986 -0.007000 0.002393
v -0.020887 -0.010832 0.002393
v -0.020590 -0.012386 0.002393
v -0.020089 -0.013528 0.002393
v -0.019378 -0.014428 0.002393
v -0.018442 -0.015147 0.002393
v -0.017256 -0.015714 0.002393
v -0.015771 -0.016145 0.002393
v -0.013886 -0.016448 0.002393
v -0.011323 -0.016628 0.002393
v -0.005000 -0.016688 0.002393
v 0.001323 -0.016628 0.002393
v 0.003886 -0.016448 0.002393
v 0.005771 -0.016145 0.002393
v 0.007256 -0.015714 0.002393
v 0.008442 -0.015147 0.002393
v 0.009378 -0.014428 0.002393
v 0.010089 -0.013528 0.002393
v 0.010590 -0.012386 0.002393
v 0.010887 -0.010832 0.002393
v 0.010986 -0.007000 0.002393
v 0.010887 -0.003168 0.002393
v 0.010590 -0.001614 0.002393
v 0.010089 -0.000472 0.002393
v 0.009378 0.000428 0.002393
v 0.008442 0.001147 0.002393
v 0.007256 0.001714 0.002393
v 0.005771 0.002145 0.002393
v 0.003886 0.002448 0.002393
v 0.001323 0.002628 0.002393
v -0.005000 0.002688 0.002393
v -0.011323 0.002628 0.002393
v -0.013886 0.002448 0.002393
v -0.015771 0.002145 0.002393
v -0.017256 0.001714 0.002393
v -0.018442 0.001147 0.002393
v -0.019378 0.000428 0.002393
v -0.020089 -0.000472 0.002393
v -0.020590 -0.001614 0.002393
v -0.020887 -0.003168 0.002393
v -0.020986 -0.007000 0.002393
v -0.021372 -0.007000 0.003599
v -0.021271 -0.010925 0.003599
v -0.020967 -0.012516 0.003599
v -0.020454 -0.013686 0.003599
v -0.019726 -0.014607 0.003599
v -0.018768 -0.015344 0.003599
v -0.017552 -0.015925 0.003599
v -0.016032 -0.016366 0.003599
v -0.014101 -0.016677 0.003599
v -0.011476 -0.016861 0.003599
v -0.005000 -0.016923 0.003599
v 0.001476 -0.016861 0.003599
v 0.004101 -0.016677 0.003599
v 0.006032 -0.016366 0.003599
v 0.007552 -0.015925 0.003599
v 0.008768 -0.015344 0.003599
v 0.009726 -0.014607 0.003599
v 0.010454 -0.013686 0.003599
v 0.010967 -0.012516 0.003599
v 0.011271 -0.010925 0.003599
v 0.011372 -0.007000 0.003599
v 0.011271 -0.003075 0.003599
v 0.010967 -0.001484 0.003599
v 0.010454 -0.000314 0.003599
v 0.009726 0.000607 0.003599
v 0.008768 0.001344 0.003599
v 0.007552 0.001925 0.003599
v 0.006032 0.002366 0.003599
v 0.004101 0.002677 0.003599
v 0.001476 0.002861 0.003599
v -0.005000 0.002923 0.003599
v -0.011476 0.002861 0.003599
v -0.014101 0.002677 0.003599
v -0.016032 0.002366 0.003599
v -0.017552 0.001925 0.003599
v -0.018768 0.001344 0.003599
v -0.019726 0.000607 0.003599
v -0.020454 -0.000314 0.003599
v -0.020967 -0.001484 0.003599
v -0.021271 -0.003075 0.003599
v -0.021372 -0.007000 0.003599
v -0.021500 -0.007000 0.007500
v -0.021398 -0.010955 0.007500
v -0.021091 -0.012559 0.007500
v -0.020575 -0.013738 0.007500
v -0.019841 -0.014667 0.007500
v -0.018875 -0.015409 0.007500
v -0.017650 -0.015995 0.007500
v -0.016118 -0.016439 0.007500
v -0.014172 -0.016752 0.007500
v -0.011526 -0.016938 0.007500
v -0.005000 -0.017000 0.007500
v 0.001526 -0.016938 0.007500
v 0.004172 -0.016752 0.007500
v 0.006118 -0.016439 0.007500
v 0.007650 -0.015995 0.007500
v 0.008875 -0.015409 0.007500
v 0.009841 -0.014667 0.007500
v 0.010575 -0.013738 0.007500
v 0.011091 -0.012559 0.007500
v 0.011398 -0.010955 0.007500
v 0.011500 -0.007000 0.007500
v 0.011398 -0.003045 0.007500
v 0.011091 -0.001441 0.007500
v 0.010575 -0.000262 0.007500
v 0.009841 0.000667 0.007500
v 0.008875 0.001409 0.007500
v 0.007650 0.001995 0.007500
v 0.006118 0.002439 0.007500
v 0.004172 0.002752 0.007500
v 0.001526 0.002938 0.007500
v -0.005000 0.003000 0.007500
v -0.011526 0.002938 0.007500
v -0.014172 0.002752 0.007500
v -0.016118 0.002439 0.007500
v -0.017650 0.001995 0.007500
v -0.018875 0.001409 0.007500
v -0.019841 0.000667 0.007500
v -0.020575 -0.000262 0.007500
v -0.021091 -0.001441 0.007500
v -0.021398 -0.003045 0.007500
v -0.021500 -0.007000 0.007500
v -0.021372 -0.007000 0.011401
v -0.021271 -0.010925 0.011401
v -0.020967 -0.012516 0.011401
v -0.020454 -0.013686 0.011401
v -0.019726 -0.014607 0.011401
v -0.018768 -0.015344 0.011401
v -0.017552 -0.015925 0.011401
v -0.016032 -0.016366 0.011401
v -0.014101 -0.016677 0.011401
v -0.011476 -0.016861 0.011401
v -0.005000 -0.016923 0.011401
v 0.001476 -0.016861 0.011401
v 0.004101 -0.016677 0.011401
v 0.006032 -0.016366 0.011401
v 0.007552 -0.015925 0.011401
v 0.008768 -0.015344 0.011401
v 0.009726 -0.014607 0.011401
v 0.010454 -0.013686 0.011401
v 0.010967 -0.012516 0.011401
v 0.011271 -0.010925 0.011401
v 0.011372 -0.007000 0.011401
v 0.011271 -0.003075 0.011401
v 0.010967 -0.001484 0.011401
v 0.010454 -0.000314 0.011401
v 0.009726 0.000607 0.011401
v 0.008768 0.001344 0.011401
v 0.007552 0.001925 0.011401
v 0.006032 0.002366 0.011401
v 0.004101 0.002677 0.011401
v 0.001476 0.002861 0.011401
v -0.005000 0.002923 0.011401
v -0.011476 0.002861 0.011401
v -0.014101 0.002677 0.011401
v -0.016032 0.002366 0.011401
v -0.017552 0.001925 0.011401
v -0.018768 0.001344 0.011401
v -0.019726 0.000607 0.011401
v -0.020454 -0.000314 0.011401
v -0.020967 -0.001484 0.011401
v -0.021271 -0.003075 0.011401
v -0.021372 -0.007000 0.011401
v -0.020986 -0.007000 0.012607
v -0.020887 -0.010832 0.012607
v -0.020590 -0.012386 0.012607
v -0.020089 -0.013528 0.012607
v -0.019378 -0.014428 0.012607
v -0.018442 -0.015147 0.012607
v -0.017256 -0.015714 0.012607
v -0.015771 -0.016145 0.012607
v -0.013886 -0.016448 0.012607
v -0.011323 -0.016628 0.012607
v -0.005000 -0.016688 0.012607
v 0.001323 -0.016628 0.012607
v 0.003886 -0.016448 0.012607
v 0.005771 -0.016145 0.012607
v 0.007256 -0.015714 0.012607
v 0.008442 -0.015147 0.012607
v 0.009378 -0.014428 0.012607
v 0.010089 -0.013528 0.012607
v 0.010590 -0.012386 0.012607
v 0.010887 -0.010832 0.012607
v 0.010986 -0.007000 0.012607
v 0.010887 -0.003168 0.012607
v 0.010590 -0.001614 0.012607
v 0.010089 -0.000472 0.012607
v 0.009378 0.000428 0.012607
v 0.008442 0.001147 0.012607
v 0.007256 0.001714 0.012607
v 0.005771 0.002145 0.012607
v 0.003886 0.002448 0.012607
v 0.001323 0.002628 0.012607
v -0.005000 0.002688 0.012607
v -0.011323 0.002628 0.012607
v -0.013886 0.002448 0.012607
v -0.015771 0.002145 0.012607
v -0.017256 0.001714 0.012607
v -0.018442 0.001147 0.012607
v -0.019378 0.000428 0.012607
v -0.020089 -0.000472 0.012607
v -0.020590 -0.001614 0.012607
v -0.020887 -0.003168 0.012607
v -0.020986 -0.007000 0.012607
v -0.020326 -0.007000 0.013429
v -0.020231 -0.010674 0.013429
v -0.019946 -0.012163 0.013429
v -0.019466 -0.013258 0.013429
v -0.018785 -0.014121 0.013429
v -0.017887 -0.014811 0.013429
v -0.016750 -0.015354 0.013429
v -0.015326 -0.015768 0.013429
v -0.013519 -0.016058 0.013429
v -0.011062 -0.016231 0.013429
v -0.005000 -0.016288 0.013429
v 0.001062 -0.016231 0.013429
v 0.003519 -0.016058 0.013429
v 0.005326 -0.015768 0.013429
v 0.006750 -0.015354 0.013429
v 0.007887 -0.014811 0.013429
v 0.008785 -0.014121 0.013429
v 0.009466 -0.013258 0.013429
v 0.009946 -0.012163 0.013429
v 0.010231 -0.010674 0.013429
v 0.010326 -0.007000 0.013429
v 0.010231 -0.003326 0.013429
v 0.009946 -0.001837 0.013429
v 0.009466 -0.000742 0.013429
v 0.008785 0.000121 0.013429
v 0.007887 0.000811 0.013429
v 0.006750 0.001354 0.013429
v 0.005326 0.001768 0.013429
v 0.003519 0.002058 0.013429
v 0.001062 0.002231 0.013429
v -0.005000 0.002288 0.013429
v -0.011062 0.002231 0.013429
v -0.013519 0.002058 0.013429
v -0.015326 0.001768 0.013429
v -0.016750 0.001354 0.013429
v -0.017887 0.000811 0.013429
v -0.018785 0.000121 0.013429
v -0.019466 -0.000742 0.013429
v -0.019946 -0.001837 0.013429
v -0.020231 -0.003326 0.013429
v -0.020326 -0.007000 0.013429
v -0.019364 -0.007000 0.014029
v -0.019275 -0.010443 0.014029
v -0.019008 -0.011839 0.014029
v -0.018559 -0.012866 0.014029
v -0.017920 -0.013674 0.014029
v -0.017079 -0.014320 0.014029
v -0.016013 -0.014830 0.014029
v -0.014678 -0.015217 0.014029
v -0.012985 -0.015490 0.014029
v -0.010681 -0.015652 0.014029
v -0.005000 -0.015706 0.014029
v 0.000681 -0.015652 0.014029
v 0.002985 -0.015490 0.014029
v 0.004678 -0.015217 0.014029
v 0.006013 -0.014830 0.014029
v 0.007079 -0.014320 0.014029
v 0.007920 -0.013674 0.014029
v 0.008559 -0.012866 0.014029
v 0.009008 -0.011839 0.014029
v 0.009275 -0.010443 0.014029
v 0.009364 -0.007000 0.014029
v 0.009275 -0.003557 0.014029
v 0.009008 -0.002161 0.014029
v 0.008559 -0.001134 0.014029
v 0.007920 -0.000326 0.014029
v 0.007079 0.000320 0.014029
v 0.006013 0.000830 0.014029
v 0.004678 0.001217 0.014029
v 0.002985 0.001490 0.014029
v 0.000681 0.001652 0.014029
v -0.005000 0.001706 0.014029
v -0.010681 0.001652 0.014029
v -0.012985 0.001490 0.014029
v -0.014678 0.001217 0.014029
v -0.016013 0.000830 0.014029
v -0.017079 0.000320 0.014029
v -0.017920 -0.000326 0.014029
v -0.018559 -0.001134 0.014029
v -0.019008 -0.002161 0.014029
v -0.019275 -0.003557 0.014029
v -0.019364 -0.007000 0.014029
v -0.018043 -0.007000 0.014466
v -0.017963 -0.010127 0.014466
v -0.017720 -0.011394 0.014466
v -0.017312 -0.012326 0.014466
v -0.016732 -0.013060 0.014466
v -0.015968 -0.013647 0.014466
v -0.015000 -0.014110 0.014466
v -0.013788 -0.014462 0.014466
v -0.012251 -0.014709 0.014466
v -0.010159 -0.014856 0.014466
v -0.005000 -0.014905 0.014466
v 0.000159 -0.014856 0.014466
v 0.002251 -0.014709 0.014466
v 0.003788 -0.014462 0.014466
v 0.005000 -0.014110 0.014466
v 0.005968 -0.013647 0.014466
v 0.006732 -0.013060 0.014466
v 0.007312 -0.012326 0.014466
v 0.007720 -0.011394 0.014466
v 0.007963 -0.010127 0.014466
v 0.008043 -0.007000 0.014466
v 0.007963 -0.003873 0.014466
v 0.007720 -0.002606 0.014466
v 0.007312 -0.001674 0.014466
v 0.006732 -0.000940 0.014466
v 0.005968 -0.000353 0.014466
v 0.005000 0.000110 0.014466
v 0.003788 0.000462 0.014466
v 0.002251 0.000709 0.014466
v 0.000159 0.000856 0.014466
v -0.005000 0.000905 0.014466
v -0.010159 0.000856 0.014466
v -0.012251 0.000709 0.014466
v -0.013788 0.000462 0.014466
v -0.015000 0.000110 0.014466
v -0.015968 -0.000353 0.014466
v -0.016732 -0.000940 0.014466
v -0.017312 -0.001674 0.014466
v -0.017720 -0.002606 0.014466
v -0.017963 -0.003873 0.014466
v -0.018043 -0.007000 0.014466
v -0.016236 -0.007000 0.014766
v -0.016167 -0.009693 0.014766
v -0.015958 -0.010786 0.014766
v -0.015606 -0.011588 0.014766
v -0.015106 -0.012221 0.014766
v -0.014448 -0.012726 0.014766
v -0.013614 -0.013125 0.014766
v -0.012571 -0.013428 0.014766
v -0.011246 -0.013641 0.014766
v -0.009444 -0.013768 0.014766
v -0.005000 -0.013810 0.014766
v -0.000556 -0.013768 0.014766
v 0.001246 -0.013641 0.014766
v 0.002571 -0.013428 0.014766
v 0.003614 -0.013125 0.014766
v 0.004448 -0.012726 0.014766
v 0.005106 -0.012221 0.014766
v 0.005606 -0.011588 0.014766
v 0.005958 -0.010786 0.014766
v 0.006167 -0.009693 0.014766
v 0.006236 -0.007000 0.014766
v 0.006167 -0.004307 0.014766
v 0.005958 -0.003214 0.014766
v 0.005606 -0.002412 0.014766
v 0.005106 -0.001779 0.014766
v 0.004448 -0.001274 0.014766
v 0.003614 -0.000875 0.014766
v 0.002571 -0.000572 0.014766
v 0.001246 -0.000359 0.014766
v -0.000556 -0.000232 0.014766
v -0.005000 -0.000190 0.014766
v -0.009444 -0.000232 0.014766
v -0.011246 -0.000359 0.014766
v -0.012571 -0.000572 0.014766
v -0.013614 -0.000875 0.014766
v -0.014448 -0.001274 0.014766
v -0.015106 -0.001779 0.014766
v -0.015606 -0.002412 0.014766
v -0.015958 -0.003214 0.014766
v -0.016167 -0.004307 0.014766
v -0.016236 -0.007000 0.014766
v -0.013582 -0.007000 0.014942
v -0.013529 -0.009057 0.014942
v -0.013369 -0.009891 0.014942
v -0.013101 -0.010504 0.014942
v -0.012719 -0.010988 0.014942
v -0.012216 -0.011374 0.014942
v -0.011579 -0.011678 0.014942
v -0.010782 -0.011909 0.014942
v -0.009771 -0.012072 0.014942
v -0.008394 -0.012169 0.014942
v -0.005000 -0.012201 0.014942
v -0.001606 -0.012169 0.014942
v -0.000229 -0.012072 0.014942
v 0.000782 -0.011909 0.014942
v 0.001579 -0.011678 0.014942
v 0.002216 -0.011374 0.014942
v 0.002719 -0.010988 0.014942
v 0.003101 -0.010504 0.014942
v 0.003369 -0.009891 0.014942
v 0.003529 -0.009057 0.014942
v 0.003582 -0.007000 0.014942
v 0.003529 -0.004943 0.014942
v 0.003369 -0.004109 0.014942
v 0.003101 -0.003496 0.014942
v 0.002719 -0.003012 0.014942
v 0.002216 -0.002626 0.014942
v 0.001579 -0.002322 0.014942
v 0.000782 -0.002091 0.014942
v -0.000229 -0.001928 0.014942
v -0.001606 -0.001831 0.014942
v -0.005000 -0.001799 0.014942
v -0.008394 -0.001831 0.014942
v -0.009771 -0.001928 0.014942
v -0.010782 -0.002091 0.014942
v -0.011579 -0.002322 0.014942
v -0.012216 -0.002626 0.014942
v -0.012719 -0.003012 0.014942
v -0.013101 -0.003496 0.014942
v -0.013369 -0.004109 0.014942
v -0.013529 -0.004943 0.014942
v -0.013582 -0.007000 0.014942
v -0.005000 -0.007000 0.015000
v -0.005000 -0.007000 0.015000
v -0.005000 -0.007000 0.015000
v -0.005000 -0.007000 0.015000
v -0.005000 -0.007000 0.015000
v -0.005000 -0.007000 0.015000
v -0.005000 -0.007000 0.015000
v -0.005000 -0.007000 0.015000
v -0.005000 -0.007000 0.015000
v -0.005000 -0.007000 0.015000
v -0.005000 -0.007000 0.015000
v -0.005000 -0.007000 0.015000
v -0.005000 -0.007000 0.015000
v -0.005000 -0.007000 0.015000
v -0.005000 -0.007000 0.015000
v -0.005000 -0.007000 0.015000
v -0.005000 -0.007000 0.015000
v -0.005000 -0.007000 0.015000
v -0.005000 -0.007000 0.015000
v -0.005000 -0.007000 0.015000
v -0.005000 -0.007000 0.015000
v -0.005000 -0.007000 0.015000
v -0.005000 -0.007000 0.015000
v -0.005000 -0.007000 0.015000
v -0.005000 -0.007000 0.015000
v -0.005000 -0.007000 0.015000
v -0.005000 -0.007000 0.015000
v -0.005000 -0.007000 0.015000
v -0.005000 -0.007000 0.015000
v -0.005000 -0.007000 0.015000
v -0.005000 -0.007000 0.015000
v -0.005000 -0.007000 0.015000
v -0.005000 -0.007000 0.015000
v -0.005000 -0.007000 0.015000
v -0.005000 -0.007000 0.015000
v -0.005000 -0.007000 0.015000
v -0.005000 -0.007000 0.015000
v -0.005000 -0.007000 0.015000
v -0.005000 -0.007000 0.015000
v -0.005000 -0.007000 0.015000
v -0.005000 -0.007000 0.015000
vt 0.50000 0.50000
vt 0.50000 0.50000
vt 0.50000 0.50000
vt 0.50000 0.50000
vt 0.50000 0.50000
vt 0.50000 0.50000
vt 0.50000 0.50000
vt 0.50000 0.50000
vt 0.50000 0.50000
vt 0.50000 0.50000
vt 0.50000 0.50000
vt 0.50000 0.50000
vt 0.50000 0.50000
vt 0.50000 0.50000
vt 0.50000 0.50000
vt 0.50000 0.50000
vt 0.50000 0.50000
vt 0.50000 0.50000
vt 0.50000 0.50000
vt 0.50000 0.50000
vt 0.50000 0.50000
vt 0.50000 0.50000
vt 0.50000 0.50000
vt 0.50000 0.50000
vt 0.50000 0.50000
vt 0.50000 0.50000
vt 0.50000 0.50000
vt 0.50000 0.50000
vt 0.50000 0.50000
vt 0.50000 0.50000
vt 0.50000 0.50000
vt 0.50000 0.50000
vt 0.50000 0.50000
vt 0.50000 0.50000
vt 0.50000 0.50000
vt 0.50000 0.50000
vt 0.50000 0.50000
vt 0.50000 0.50000
vt 0.50000 0.50000
vt 0.50000 0.50000
vt 0.50000 0.50000
vt 0.23995 0.50000
vt 0.24155 0.39714
vt 0.24639 0.35544
vt 0.25453 0.32478
vt 0.26609 0.30062
vt 0.28132 0.28132
vt 0.30062 0.26609
vt 0.32478 0.25453
vt 0.35544 0.24639
vt 0.39714 0.24155
vt 0.50000 0.23995
vt 0.60286 0.24155
vt 0.64456 0.24639
vt 0.67522 0.25453
vt 0.69938 0.26609
vt 0.71868 0.28132
vt 0.73391 0.30062
vt 0.74547 0.32478
vt 0.75361 0.35544
vt 0.75845 0.39714
vt 0.76005 0.50000
vt 0.75845 0.60286
vt 0.75361 0.64456
vt 0.74547 0.67522
vt 0.73391 0.69938
vt 0.71868 0.71868
vt 0.69938 0.73391
vt 0.67522 0.74547
vt 0.64456 0.75361
vt 0.60286 0.75845
vt 0.50000 0.76005
vt 0.39714 0.75845
vt 0.35544 0.75361
vt 0.32478 0.74547
vt 0.30062 0.73391
vt 0.28132 0.71868
vt 0.26609 0.69938
vt 0.25453 0.67522
vt 0.24639 0.64456
vt 0.24155 0.60286
vt 0.23995 0.50000
vt 0.15951 0.50000
vt 0.16161 0.36533
vt 0.16795 0.31072
vt 0.17860 0.27058
vt 0.19374 0.23896
vt 0.21368 0.21368
vt 0.23896 0.19374
vt 0.27058 0.17860
vt 0.31072 0.16795
vt 0.36533 0.16161
vt 0.50000 0.15951
vt 0.63467 0.16161
vt 0.68928 0.16795
vt 0.72942 0.17860
vt 0.76104 0.19374
vt 0.78632 0.21368
vt 0.80626 0.23896
vt 0.82140 0.27058
vt 0.83205 0.31072
vt 0.83839 0.36533
vt 0.84049 0.50000
vt 0.83839 0.63467
vt 0.83205 0.68928
vt 0.82140 0.72942
vt 0.80626 0.76104
vt 0.78632 0.78632
vt 0.76104 0.80626
vt 0.72942 0.82140
vt 0.68928 0.83205
vt 0.63467 0.83839
vt 0.50000 0.84049
vt 0.36533 0.83839
vt 0.31072 0.83205
vt 0.27058 0.82140
vt 0.23896 0.80626
vt 0.21368 0.78632
vt 0.19374 0.76104
vt 0.17860 0.72942
vt 0.16795 0.68928
vt 0.16161 0.63467
vt 0.15951 0.50000
vt 0.10476 0.50000
vt 0.10720 0.34367
vt 0.11455 0.28029
vt 0.12692 0.23369
vt 0.14450 0.19698
vt 0.16764 0.16764
vt 0.19698 0.14450
vt 0.23369 0.12692
vt 0.28029 0.11455
vt 0.34367 0.10720
vt 0.50000 0.10476
vt 0.65633 0.10720
vt 0.71971 0.11455
vt 0.76631 0.12692
vt 0.80302 0.14450
vt 0.83236 0.16764
vt 0.85550 0.19698
vt 0.87308 0.23369
vt 0.88545 0.28029
vt 0.89280 0.34367
vt 0.89524 0.50000
vt 0.89280 0.65633
vt 0.88545 0.71971
vt 0.87308 0.76631
vt 0.85550 0.80302
vt 0.83236 0.83236
vt 0.80302 0.85550
vt 0.76631 0.87308
vt 0.71971 0.88545
vt 0.65633 0.89280
vt 0.50000 0.89524
vt 0.34367 0.89280
vt 0.28029 0.88545
vt 0.23369 0.87308
vt 0.19698 0.85550
vt 0.16764 0.83236
vt 0.14450 0.80302
vt 0.12692 0.76631
vt 0.11455 0.71971
vt 0.10720 0.65633
vt 0.10476 0.50000
vt 0.06472 0.50000
vt 0.06741 0.32784
vt 0.07551 0.25803
vt 0.08913 0.20672
vt 0.10849 0.16629
vt 0.13398 0.13398
vt 0.16629 0.10849
vt 0.20672 0.08913
vt 0.25803 0.07551
vt 0.32784 0.06741
vt 0.50000 0.06472
vt 0.67216 0.06741
vt 0.74197 0.07551
vt 0.79328 0.08913
vt 0.83371 0.10849
vt 0.86602 0.13398
vt 0.89151 0.16629
vt 0.91087 0.20672
vt 0.92449 0.25803
vt 0.93259 0.32784
vt 0.93528 0.50000
vt 0.93259 0.67216
vt 0.92449 0.74197
vt 0.91087 0.79328
vt 0.89151 0.83371
vt 0.86602 0.86602
vt 0.83371 0.89151
vt 0.79328 0.91087
vt 0.74197 0.92449
vt 0.67216 0.93259
vt 0.50000 0.93528
vt 0.32784 0.93259
vt 0.25803 0.92449
vt 0.20672 0.91087
vt 0.16629 0.89151
vt 0.13398 0.86602
vt 0.10849 0.83371
vt 0.08913 0.79328
vt 0.07551 0.74197
vt 0.06741 0.67216
vt 0.06472 0.50000
vt 0.03558 0.50000
vt 0.03845 0.31631
vt 0.04709 0.24183
vt 0.06162 0.18708
vt 0.08228 0.14394
vt 0.10947 0.10947
vt 0.14394 0.08228
vt 0.18708 0.06162
vt 0.24183 0.04709
vt 0.31631 0.03845
vt 0.50000 0.03558
vt 0.68369 0.03845
vt 0.75817 0.04709
vt 0.81292 0.06162
vt 0.85606 0.08228
vt 0.89053 0.10947
vt 0.91772 0.14394
vt 0.93838 0.18708
vt 0.95291 0.24183
vt 0.96155 0.31631
vt 0.96442 0.50000
vt 0.96155 0.68369
vt 0.95291 0.75817
vt 0.93838 0.81292
vt 0.91772 0.85606
vt 0.89053 0.89053
vt 0.85606 0.91772
vt 0.81292 0.93838
vt 0.75817 0.95291
vt 0.68369 0.96155
vt 0.50000 0.96442
vt 0.31631 0.96155
vt 0.24183 0.95291
vt 0.18708 0.93838
vt 0.14394 0.91772
vt 0.10947 0.89053
vt 0.08228 0.85606
vt 0.06162 0.81292
vt 0.04709 0.75817
vt 0.03845 0.68369
vt 0.03558 0.50000
vt 0.01559 0.50000
vt 0.01858 0.30841
vt 0.02759 0.23072
vt 0.04275 0.17361
vt 0.06429 0.12861
vt 0.09266 0.09266
vt 0.12861 0.06429
vt 0.17361 0.04275
vt 0.23072 0.02759
vt 0.30841 0.01858
vt 0.50000 0.01559
vt 0.69159 0.01858
vt 0.76928 0.02759
vt 0.82639 0.04275
vt 0.87139 0.06429
vt 0.90734 0.09266
vt 0.93571 0.12861
vt 0.95725 0.17361
vt 0.97241 0.23072
vt 0.98142 0.30841
vt 0.98441 0.50000
vt 0.98142 0.69159
vt 0.97241 0.76928
vt 0.95725 0.82639
vt 0.93571 0.87139
vt 0.90734 0.90734
vt 0.87139 0.93571
vt 0.82639 0.95725
vt 0.76928 0.97241
vt 0.69159 0.98142
vt 0.50000 0.98441
vt 0.30841 0.98142
vt 0.23072 0.97241
vt 0.17361 0.95725
vt 0.12861 0.93571
vt 0.09266 0.90734
vt 0.06429 0.87139
vt 0.04275 0.82639
vt 0.02759 0.76928
vt 0.01858 0.69159
vt 0.01559 0.50000
vt 0.00387 0.50000
vt 0.00693 0.30377
vt 0.01616 0.22420
vt 0.03168 0.16571
vt 0.05375 0.11963
vt 0.08280 0.08280
vt 0.11963 0.05375
vt 0.16571 0.03168
vt 0.22420 0.01616
vt 0.30377 0.00693
vt 0.50000 0.00387
vt 0.69623 0.00693
vt 0.77580 0.01616
vt 0.83429 0.03168
vt 0.88037 0.05375
vt 0.91720 0.08280
vt 0.94625 0.11963
vt 0.96832 0.16571
vt 0.98384 0.22420
vt 0.99307 0.30377
vt 0.99613 0.50000
vt 0.99307 0.69623
vt 0.98384 0.77580
vt 0.96832 0.83429
vt 0.94625 0.88037
vt 0.91720 0.91720
vt 0.88037 0.94625
vt 0.83429 0.96832
vt 0.77580 0.98384
vt 0.69623 0.99307
vt 0.50000 0.99613
vt 0.30377 0.99307
vt 0.22420 0.98384
vt 0.16571 0.96832
vt 0.11963 0.94625
vt 0.08280 0.91720
vt 0.05375 0.88037
vt 0.03168 0.83429
vt 0.01616 0.77580
vt 0.00693 0.69623
vt 0.00387 0.50000
vt 0.00000 0.50000
vt 0.00309 0.30224
vt 0.01239 0.22205
vt 0.02803 0.16311
vt 0.05027 0.11666
vt 0.07955 0.07955
vt 0.11666 0.05027
vt 0.16311 0.02803
vt 0.22205 0.01239
vt 0.30224 0.00309
vt 0.50000 0.00000
vt 0.69776 0.00309
vt 0.77795 0.01239
vt 0.83689 0.02803
vt 0.88334 0.05027
vt 0.92045 0.07955
vt 0.94973 0.11666
vt 0.97197 0.16311
vt 0.98761 0.22205
vt 0.99691 0.30224
vt 1.00000 0.50000
vt 0.99691 0.69776
vt 0.98761 0.77795
vt 0.97197 0.83689
vt 0.94973 0.88334
vt 0.92045 0.92045
vt 0.88334 0.94973
vt 0.83689 0.97197
vt 0.77795 0.98761
vt 0.69776 0.99691
vt 0.50000 1.00000
vt 0.30224 0.99691
vt 0.22205 0.98761
vt 0.16311 0.97197
vt 0.11666 0.94973
vt 0.07955 0.92045
vt 0.05027 0.88334
vt 0.02803 0.83689
vt 0.01239 0.77795
vt 0.00309 0.69776
vt 0.00000 0.50000
vt 0.00387 0.50000
vt 0.00693 0.30377
vt 0.01616 0.22420
vt 0.03168 0.16571
vt 0.05375 0.11963
vt 0.08280 0.08280
vt 0.11963 0.05375
vt 0.16571 0.03168
vt 0.22420 0.01616
vt 0.30377 0.00693
vt 0.50000 0.00387
vt 0.69623 0.00693
vt 0.77580 0.01616
vt 0.83429 0.03168
vt 0.88037 0.05375
vt 0.91720 0.08280
vt 0.94625 0.11963
vt 0.96832 0.16571
vt 0.98384 0.22420
vt 0.99307 0.30377
vt 0.99613 0.50000
vt 0.99307 0.69623
vt 0.98384 0.77580
vt 0.96832 0.83429
vt 0.94625 0.88037
vt 0.91720 0.91720
vt 0.88037 0.94625
vt 0.83429 0.96832
vt 0.77580 0.98384
vt 0.69623 0.99307
vt 0.50000 0.99613
vt 0.30377 0.99307
vt 0.22420 0.98384
vt 0.16571 0.96832
vt 0.11963 0.94625
vt 0.08280 0.91720
vt 0.05375 0.88037
vt 0.03168 0.83429
vt 0.01616 0.77580
vt 0.00693 0.69623
vt 0.00387 0.50000
vt 0.01559 0.50000
vt 0.01858 0.30841
vt 0.02759 0.23072
vt 0.04275 0.17361
vt 0.06429 0.12861
vt 0.09266 0.09266
vt 0.12861 0.06429
vt 0.17361 0.04275
vt 0.23072 0.02759
vt 0.30841 0.01858
vt 0.50000 0.01559
vt 0.69159 0.01858
vt 0.76928 0.02759
vt 0.82639 0.04275
vt 0.87139 0.06429
vt 0.90734 0.09266
vt 0.93571 0.12861
vt 0.95725 0.17361
vt 0.97241 0.23072
vt 0.98142 0.30841
vt 0.98441 0.50000
vt 0.98142 0.69159
vt 0.97241 0.76928
vt 0.95725 0.82639
vt 0.93571 0.87139
vt 0.90734 0.90734
vt 0.87139 0.93571
vt 0.82639 0.95725
vt 0.76928 0.97241
vt 0.69159 0.98142
vt 0.50000 0.98441
vt 0.30841 0.98142
vt 0.23072 0.97241
vt 0.17361 0.95725
vt 0.12861 0.93571
vt 0.09266 0.90734
vt 0.06429 0.87139
vt 0.04275 0.82639
vt 0.02759 0.76928
vt 0.01858 0.69159
vt 0.01559 0.50000
vt 0.03558 0.50000
vt 0.03845 0.31631
vt 0.04709 0.24183
vt 0.06162 0.18708
vt 0.08228 0.14394
vt 0.10947 0.10947
vt 0.14394 0.08228
vt 0.18708 0.06162
vt 0.24183 0.04709
vt 0.31631 0.03845
vt 0.50000 0.03558
vt 0.68369 0.03845
vt 0.75817 0.04709
vt 0.81292 0.06162
vt 0.85606 0.08228
vt 0.89053 0.10947
vt 0.91772 0.14394
vt 0.93838 0.18708
vt 0.95291 0.24183
vt 0.96155 0.31631
vt 0.96442 0.50000
vt 0.96155 0.68369
vt 0.95291 0.75817
vt 0.93838 0.81292
vt 0.91772 0.85606
vt 0.89053 0.89053
vt 0.85606 0.91772
vt 0.81292 0.93838
vt 0.75817 0.95291
vt 0.68369 0.96155
vt 0.50000 0.96442
vt 0.31631 0.96155
vt 0.24183 0.95291
vt 0.18708 0.93838
vt 0.14394 0.91772
vt 0.10947 0.89053
vt 0.08228 0.85606
vt 0.06162 0.81292
vt 0.04709 0.75817
vt 0.03845 0.68369
vt 0.03558 0.50000
vt 0.06472 0.50000
vt 0.06741 0.32784
vt 0.07551 0.25803
vt 0.08913 0.20672
vt 0.10849 0.16629
vt 0.13398 0.13398
vt 0.16629 0.10849
vt 0.20672 0.08913
vt 0.25803 0.07551
vt 0.32784 0.06741
vt 0.50000 0.06472
vt 0.67216 0.06741
vt 0.74197 0.07551
vt 0.79328 0.08913
vt 0.83371 0.10849
vt 0.86602 0.13398
vt 0.89151 0.16629
vt 0.91087 0.20672
vt 0.92449 0.25803
vt 0.93259 0.32784
vt 0.93528 0.50000
vt 0.93259 0.67216
vt 0.92449 0.74197
vt 0.91087 0.79328
vt 0.89151 0.83371
vt 0.86602 0.86602
vt 0.83371 0.89151
vt 0.79328 0.91087
vt 0.74197 0.92449
vt 0.67216 0.93259
vt 0.50000 0.93528
vt 0.32784 0.93259
vt 0.25803 0.92449
vt 0.20672 0.91087
vt 0.16629 0.89151
vt 0.13398 0.86602
vt 0.10849 0.83371
vt 0.08913 0.79328
vt 0.07551 0.74197
vt 0.06741 0.67216
vt 0.06472 0.50000
vt 0.10476 0.50000
vt 0.10720 0.34367
vt 0.11455 0.28029
vt 0.12692 0.23369
vt 0.14450 0.19698
vt 0.16764 0.16764
vt 0.19698 0.14450
vt 0.23369 0.12692
vt 0.28029 0.11455
vt 0.34367 0.10720
vt 0.50000 0.10476
vt 0.65633 0.10720
vt 0.71971 0.11455
vt 0.76631 0.12692
vt 0.80302 0.14450
vt 0.83236 0.16764
vt 0.85550 0.19698
vt 0.87308 0.23369
vt 0.88545 0.28029
vt 0.89280 0.34367
vt 0.89524 0.50000
vt 0.89280 0.65633
vt 0.88545 0.71971
vt 0.87308 0.76631
vt 0.85550 0.80302
vt 0.83236 0.83236
vt 0.80302 0.85550
vt 0.76631 0.87308
vt 0.71971 0.88545
vt 0.65633 0.89280
vt 0.50000 0.89524
vt 0.34367 0.89280
vt 0.28029 0.88545
vt 0.23369 0.87308
vt 0.19698 0.85550
vt 0.16764 0.83236
vt 0.14450 0.80302
vt 0.12692 0.76631
vt 0.11455 0.71971
vt 0.10720 0.65633
vt 0.10476 0.50000
vt 0.15951 0.50000
vt 0.16161 0.36533
vt 0.16795 0.31072
vt 0.17860 0.27058
vt 0.19374 0.23896
vt 0.21368 0.21368
vt 0.23896 0.19374
vt 0.27058 0.17860
vt 0.31072 0.16795
vt 0.36533 0.16161
vt 0.50000 0.15951
vt 0.63467 0.16161
vt 0.68928 0.16795
vt 0.72942 0.17860
vt 0.76104 0.19374
vt 0.78632 0.21368
vt 0.80626 0.23896
vt 0.82140 0.27058
vt 0.83205 0.31072
vt 0.83839 0.36533
vt 0.84049 0.50000
vt 0.83839 0.63467
vt 0.83205 0.68928
vt 0.82140 0.72942
vt 0.80626 0.76104
vt 0.78632 0.78632
vt 0.76104 0.80626
vt 0.72942 0.82140
vt 0.68928 0.83205
vt 0.63467 0.83839
vt 0.50000 0.84049
vt 0.36533 0.83839
vt 0.31072 0.83205
vt 0.27058 0.82140
vt 0.23896 0.80626
vt 0.21368 0.78632
vt 0.19374 0.76104
vt 0.17860 0.72942
vt 0.16795 0.68928
vt 0.16161 0.63467
vt 0.15951 0.50000
vt 0.23995 0.50000
vt 0.24155 0.39714
vt 0.24639 0.35544
vt 0.25453 0.32478
vt 0.26609 0.30062
vt 0.28132 0.28132
vt 0.30062 0.26609
vt 0.32478 0.25453
vt 0.35544 0.24639
vt 0.39714 0.24155
vt 0.50000 0.23995
vt 0.60286 0.24155
vt 0.64456 0.24639
vt 0.67522 0.25453
vt 0.69938 0.26609
vt 0.71868 0.28132
vt 0.73391 0.30062
vt 0.74547 0.32478
vt 0.75361 0.35544
vt 0.75845 0.39714
vt 0.76005 0.50000
vt 0.75845 0.60286
vt 0.75361 0.64456
vt 0.74547 0.67522
vt 0.73391 0.69938
vt 0.71868 0.71868
vt 0.69938 0.73391
vt 0.67522 0.74547
vt 0.64456 0.75361
vt 0.60286 0.75845
vt 0.50000 0.76005
vt 0.39714 0.75845
vt 0.35544 0.75361
vt 0.32478 0.74547
vt 0.30062 0.73391
vt 0.28132 0.71868
vt 0.26609 0.69938
vt 0.25453 0.67522
vt 0.24639 0.64456
vt 0.24155 0.60286
vt 0.23995 0.50000
vt 0.50000 0.50000
vt 0.50000 0.50000
vt 0.50000 0.50000
vt 0.50000 0.50000
vt 0.50000 0.50000
vt 0.50000 0.50000
vt 0.50000 0.50000
vt 0.50000 0.50000
vt 0.50000 0.50000
vt 0.50000 0.50000
vt 0.50000 0.50000
vt 0.50000 0.50000
vt 0.50000 0.50000
vt 0.50000 0.50000
vt 0.50000 0.50000
vt 0.50000 0.50000
vt 0.50000 0.50000
vt 0.50000 0.50000
vt 0.50000 0.50000
vt 0.50000 0.50000
vt 0.50000 0.50000
vt 0.50000 0.50000
vt 0.50000 0.50000
vt 0.50000 0.50000
vt 0.50000 0.50000
vt 0.50000 0.50000
vt 0.50000 0.50000
vt 0.50000 0.50000
vt 0.50000 0.50000
vt 0.50000 0.50000
vt 0.50000 0.50000
vt 0.50000 0.50000
vt 0.50000 0.50000
vt 0.50000 0.50000
vt 0.50000 0.50000
vt 0.50000 0.50000
vt 0.50000 0.50000
vt 0.50000 0.50000
vt 0.50000 0.50000
vt 0.50000 0.50000
vt 0.50000 0.50000
vn -0.0000 -0.0000 -1.0000
vn -0.0000 -0.0000 -1.0000
vn -0.0000 -0.0000 -1.0000
vn -0.0000 -0.0000 -1.0000
vn -0.0000 -0.0000 -1.0000
vn -0.0000 -0.0000 -1.0000
vn -0.0000 -0.0000 -1.0000
vn -0.0000 -0.0000 -1.0000
vn -0.0000 -0.0000 -1.0000
vn -0.0000 -0.0000 -1.0000
vn 0.0000 -0.0000 -1.0000
vn 0.0000 -0.0000 -1.0000
vn 0.0000 -0.0000 -1.0000
vn 0.0000 -0.0000 -1.0000
vn 0.0000 -0.0000 -1.0000
vn 0.0000 -0.0000 -1.0000
vn 0.0000 -0.0000 -1.0000
vn 0.0000 -0.0000 -1.0000
vn 0.0000 -0.0000 -1.0000
vn 0.0000 -0.0000 -1.0000
vn 0.0000 0.0000 -1.0000
vn 0.0000 0.0000 -1.0000
vn 0.0000 0.0000 -1.0000
vn 0.0000 0.0000 -1.0000
vn 0.0000 0.0000 -1.0000
vn 0.0000 0.0000 -1.0000
vn 0.0000 0.0000 -1.0000
vn 0.0000 0.0000 -1.0000
vn 0.0000 0.0000 -1.0000
vn 0.0000 0.0000 -1.0000
vn 0.0000 0.0000 -1.0000
vn -0.0000 0.0000 -1.0000
vn -0.0000 0.0000 -1.0000
vn -0.0000 0.0000 -1.0000
vn -0.0000 0.0000 -1.0000
vn -0.0000 0.0000 -1.0000
vn -0.0000 0.0000 -1.0000
vn -0.0000 0.0000 -1.0000
vn -0.0000 0.0000 -1.0000
vn -0.0000 0.0000 -1.0000
vn -0.0000 0.0000 -1.0000
vn -0.0343 -0.0000 -0.9994
vn -0.0337 -0.0035 -0.9994
vn -0.0318 -0.0097 -0.9994
vn -0.0288 -0.0173 -0.9994
vn -0.0250 -0.0255 -0.9994
vn -0.0204 -0.0336 -0.9992
vn -0.0154 -0.0412 -0.9990
vn -0.0105 -0.0476 -0.9988
vn -0.0059 -0.0524 -0.9986
vn -0.0021 -0.0555 -0.9985
vn 0.0000 -0.0565 -0.9984
vn 0.0021 -0.0555 -0.9985
vn 0.0059 -0.0524 -0.9986
vn 0.0105 -0.0476 -0.9988
vn 0.0154 -0.0412 -0.9990
vn 0.0204 -0.0336 -0.9992
vn 0.0250 -0.0255 -0.9994
vn 0.0288 -0.0173 -0.9994
vn 0.0318 -0.0097 -0.9994
vn 0.0337 -0.0035 -0.9994
vn 0.0343 0.0000 -0.9994
vn 0.0337 0.0035 -0.9994
vn 0.0318 0.0097 -0.9994
vn 0.0288 0.0173 -0.9994
vn 0.0250 0.0255 -0.9994
vn 0.0204 0.0336 -0.9992
vn 0.0154 0.0412 -0.9990
vn 0.0105 0.0476 -0.9988
vn 0.0059 0.0524 -0.9986
vn 0.0021 0.0555 -0.9985
vn 0.0000 0.0565 -0.9984
vn -0.0021 0.0555 -0.9985
vn -0.0059 0.0524 -0.9986
vn -0.0105 0.0476 -0.9988
vn -0.0154 0.0412 -0.9990
vn -0.0204 0.0336 -0.9992
vn -0.0250 0.0255 -0.9994
vn -0.0288 0.0173 -0.9994
vn -0.0318 0.0097 -0.9994
vn -0.0337 0.0035 -0.9994
vn -0.0343 0.0000 -0.9994
vn -0.1103 -0.0000 -0.9939
vn -0.1083 -0.0113 -0.9941
vn -0.1023 -0.0313 -0.9943
vn -0.0928 -0.0557 -0.9941
vn -0.0802 -0.0820 -0.9934
vn -0.0654 -0.1080 -0.9920
vn -0.0495 -0.1319 -0.9900
vn -0.0335 -0.1521 -0.9878
vn -0.0188 -0.1674 -0.9857
vn -0.0068 -0.1769 -0.9842
vn 0.0000 -0.1801 -0.9837
vn 0.0068 -0.1769 -0.9842
vn 0.0188 -0.1674 -0.9857
vn 0.0335 -0.1521 -0.9878
vn 0.0495 -0.1319 -0.9900
vn 0.0654 -0.1080 -0.9920
vn 0.0802 -0.0820 -0.9934
vn 0.0928 -0.0557 -0.9941
vn 0.1023 -0.0313 -0.9943
vn 0.1083 -0.0113 -0.9941
vn 0.1103 0.0000 -0.9939
vn 0.1083 0.0113 -0.9941
vn 0.1023 0.0313 -0.9943
vn 0.0928 0.0557 -0.9941
vn 0.0802 0.0820 -0.9934
vn 0.0654 0.1080 -0.9920
vn 0.0495 0.1319 -0.9900
vn 0.0335 0.1521 -0.9878
vn 0.0188 0.1674 -0.9857
vn 0.0068 0.1769 -0.9842
vn 0.0000 0.1801 -0.9837
vn -0.0068 0.1769 -0.9842
vn -0.0188 0.1674 -0.9857
vn -0.0335 0.1521 -0.9878
vn -0.0495 0.1319 -0.9900
vn -0.0654 0.1080 -0.9920
vn -0.0802 0.0820 -0.9934
vn -0.0928 0.0557 -0.9941
vn -0.1023 0.0313 -0.9943
vn -0.1083 0.0113 -0.9941
vn -0.1103 0.0000 -0.9939
vn -0.2320 -0.0000 -0.9727
vn -0.2278 -0.0237 -0.9734
vn -0.2155 -0.0658 -0.9743
vn -0.1953 -0.1172 -0.9737
vn -0.1684 -0.1721 -0.9706
vn -0.1368 -0.2257 -0.9646
vn -0.1028 -0.2738 -0.9563
vn -0.0691 -0.3134 -0.9471
vn -0.0385 -0.3426 -0.9387
vn -0.0138 -0.3602 -0.9328
vn 0.0000 -0.3661 -0.9306
vn 0.0138 -0.3602 -0.9328
vn 0.0385 -0.3426 -0.9387
vn 0.0691 -0.3134 -0.9471
vn 0.1028 -0.2738 -0.9563
vn 0.1368 -0.2257 -0.9646
vn 0.1684 -0.1721 -0.9706
vn 0.1953 -0.1172 -0.9737
vn 0.2155 -0.0658 -0.9743
vn 0.2278 -0.0237 -0.9734
vn 0.2320 0.0000 -0.9727
vn 0.2278 0.0237 -0.9734
vn 0.2155 0.0658 -0.9743
vn 0.1953 0.1172 -0.9737
vn 0.1684 0.1721 -0.9706
vn 0.1368 0.2257 -0.9646
vn 0.1028 0.2738 -0.9563
vn 0.0691 0.3134 -0.9471
vn 0.0385 0.3426 -0.9387
vn 0.0138 0.3602 -0.9328
vn 0.0000 0.3661 -0.9306
vn -0.0138 0.3602 -0.9328
vn -0.0385 0.3426 -0.9387
vn -0.0691 0.3134 -0.9471
vn -0.1028 0.2738 -0.9563
vn -0.1368 0.2257 -0.9646
vn -0.1684 0.1721 -0.9706
vn -0.1953 0.1172 -0.9737
vn -0.2155 0.0658 -0.9743
vn -0.2278 0.0237 -0.9734
vn -0.2320 0.0000 -0.9727
vn -0.4138 -0.0000 -0.9104
vn -0.4071 -0.0423 -0.9124
vn -0.3858 -0.1179 -0.9150
vn -0.3492 -0.2095 -0.9133
vn -0.2990 -0.3055 -0.9040
vn -0.2396 -0.3954 -0.8867
vn -0.1770 -0.4715 -0.8639
vn -0.1168 -0.5299 -0.8400
vn -0.0640 -0.5699 -0.8192
vn -0.0226 -0.5927 -0.8051
vn 0.0000 -0.6000 -0.8000
vn 0.0226 -0.5927 -0.8051
vn 0.0640 -0.5699 -0.8192
vn 0.1168 -0.5299 -0.8400
vn 0.1770 -0.4715 -0.8639
vn 0.2396 -0.3954 -0.8867
vn 0.2990 -0.3055 -0.9040
vn 0.3492 -0.2095 -0.9133
vn 0.3858 -0.1179 -0.9150
vn 0.4071 -0.0423 -0.9124
vn 0.4138 0.0000 -0.9104
vn 0.4071 0.0423 -0.9124
vn 0.3858 0.1179 -0.9150
vn 0.3492 0.2095 -0.9133
vn 0.2990 0.3055 -0.9040
vn 0.2396 0.3954 -0.8867
vn 0.1770 0.4715 -0.8639
vn 0.1168 0.5299 -0.8400
vn 0.0640 0.5699 -0.8192
vn 0.0226 0.5927 -0.8051
vn 0.0000 0.6000 -0.8000
vn -0.0226 0.5927 -0.8051
vn -0.0640 0.5699 -0.8192
vn -0.1168 0.5299 -0.8400
vn -0.1770 0.4715 -0.8639
vn -0.2396 0.3954 -0.8867
vn -0.2990 0.3055 -0.9040
vn -0.3492 0.2095 -0.9133
vn -0.3858 0.1179 -0.9150
vn -0.4071 0.0423 -0.9124
vn -0.4138 0.0000 -0.9104
vn -0.6548 -0.0000 -0.7558
vn -0.6464 -0.0672 -0.7600
vn -0.6152 -0.1880 -0.7656
vn -0.5553 -0.3332 -0.7620
vn -0.4683 -0.4785 -0.7428
vn -0.3654 -0.6029 -0.7092
vn -0.2612 -0.6959 -0.6689
vn -0.1671 -0.7580 -0.6304
vn -0.0893 -0.7952 -0.5997
vn -0.0311 -0.8140 -0.5800
vn 0.0000 -0.8194 -0.5732
vn 0.0311 -0.8140 -0.5800
vn 0.0893 -0.7952 -0.5997
vn 0.1671 -0.7580 -0.6304
vn 0.2612 -0.6959 -0.6689
vn 0.3654 -0.6029 -0.7092
vn 0.4683 -0.4785 -0.7428
vn 0.5553 -0.3332 -0.7620
vn 0.6152 -0.1880 -0.7656
vn 0.6464 -0.0672 -0.7600
vn 0.6548 0.0000 -0.7558
vn 0.6464 0.0672 -0.7600
vn 0.6152 0.1880 -0.7656
vn 0.5553 0.3332 -0.7620
vn 0.4683 0.4785 -0.7428
vn 0.3654 0.6029 -0.7092
vn 0.2612 0.6959 -0.6689
vn 0.1671 0.7580 -0.6304
vn 0.0893 0.7952 -0.5997
vn 0.0311 0.8140 -0.5800
vn 0.0000 0.8194 -0.5732
vn -0.0311 0.8140 -0.5800
vn -0.0893 0.7952 -0.5997
vn -0.1671 0.7580 -0.6304
vn -0.2612 0.6959 -0.6689
vn -0.3654 0.6029 -0.7092
vn -0.4683 0.4785 -0.7428
vn -0.5553 0.3332 -0.7620
vn -0.6152 0.1880 -0.7656
vn -0.6464 0.0672 -0.7600
vn -0.6548 0.0000 -0.7558
vn -0.8810 -0.0000 -0.4731
vn -0.8737 -0.0909 -0.4780
vn -0.8366 -0.2557 -0.4844
vn -0.7521 -0.4514 -0.4802
vn -0.6215 -0.6351 -0.4587
vn -0.4694 -0.7745 -0.4239
vn -0.3241 -0.8636 -0.3862
vn -0.2014 -0.9135 -0.3535
vn -0.1053 -0.9383 -0.3293
vn -0.0362 -0.9486 -0.3145
vn 0.0000 -0.9509 -0.3095
vn 0.0362 -0.9486 -0.3145
vn 0.1053 -0.9383 -0.3293
vn 0.2014 -0.9135 -0.3535
vn 0.3241 -0.8636 -0.3862
vn 0.4694 -0.7745 -0.4239
vn 0.6215 -0.6351 -0.4587
vn 0.7521 -0.4514 -0.4802
vn 0.8366 -0.2557 -0.4844
vn 0.8737 -0.0909 -0.4780
vn 0.8810 0.0000 -0.4731
vn 0.8737 0.0909 -0.4780
vn 0.8366 0.2557 -0.4844
vn 0.7521 0.4514 -0.4802
vn 0.6215 0.6351 -0.4587
vn 0.4694 0.7745 -0.4239
vn 0.3241 0.8636 -0.3862
vn 0.2014 0.9135 -0.3535
vn 0.1053 0.9383 -0.3293
vn 0.0362 0.9486 -0.3145
vn 0.0000 0.9509 -0.3095
vn -0.0362 0.9486 -0.3145
vn -0.1053 0.9383 -0.3293
vn -0.2014 0.9135 -0.3535
vn -0.3241 0.8636 -0.3862
vn -0.4694 0.7745 -0.4239
vn -0.6215 0.6351 -0.4587
vn -0.7521 0.4514 -0.4802
vn -0.8366 0.2557 -0.4844
vn -0.8737 0.0909 -0.4780
vn -0.8810 0.0000 -0.4731
vn -0.9865 -0.0000 -0.1638
vn -0.9808 -0.1020 -0.1659
vn -0.9426 -0.2881 -0.1688
vn -0.8454 -0.5073 -0.1669
vn -0.6907 -0.7058 -0.1576
vn -0.5130 -0.8464 -0.1433
vn -0.3485 -0.9285 -0.1284
vn -0.2138 -0.9700 -0.1161
vn -0.1109 -0.9880 -0.1072
vn -0.0380 -0.9941 -0.1019
vn 0.0000 -0.9950 -0.1001
vn 0.0380 -0.9941 -0.1019
vn 0.1109 -0.9880 -0.1072
vn 0.2138 -0.9700 -0.1161
vn 0.3485 -0.9285 -0.1284
vn 0.5130 -0.8464 -0.1433
vn 0.6907 -0.7058 -0.1576
vn 0.8454 -0.5073 -0.1669
vn 0.9426 -0.2881 -0.1688
vn 0.9808 -0.1020 -0.1659
vn 0.9865 0.0000 -0.1638
vn 0.9808 0.1020 -0.1659
vn 0.9426 0.2881 -0.1688
vn 0.8454 0.5073 -0.1669
vn 0.6907 0.7058 -0.1576
vn 0.5130 0.8464 -0.1433
vn 0.3485 0.9285 -0.1284
vn 0.2138 0.9700 -0.1161
vn 0.1109 0.9880 -0.1072
vn 0.0380 0.9941 -0.1019
vn 0.0000 0.9950 -0.1001
vn -0.0380 0.9941 -0.1019
vn -0.1109 0.9880 -0.1072
vn -0.2138 0.9700 -0.1161
vn -0.3485 0.9285 -0.1284
vn -0.5130 0.8464 -0.1433
vn -0.6907 0.7058 -0.1576
vn -0.8454 0.5073 -0.1669
vn -0.9426 0.2881 -0.1688
vn -0.9808 0.1020 -0.1659
vn -0.9865 0.0000 -0.1638
vn -1.0000 -0.0000 0.0000
vn -0.9946 -0.1034 0.0000
vn -0.9563 -0.2923 0.0000
vn -0.8575 -0.5146 0.0000
vn -0.6994 -0.7147 0.0000
vn -0.5183 -0.8552 0.0000
vn -0.3514 -0.9362 0.0000
vn -0.2153 -0.9766 0.0000
vn -0.1115 -0.9938 0.0000
vn -0.0382 -0.9993 0.0000
vn 0.0000 -1.0000 0.0000
vn 0.0382 -0.9993 0.0000
vn 0.1115 -0.9938 0.0000
vn 0.2153 -0.9766 0.0000
vn 0.3514 -0.9362 0.0000
vn 0.5183 -0.8552 0.0000
vn 0.6994 -0.7147 0.0000
vn 0.8575 -0.5146 0.0000
vn 0.9563 -0.2923 0.0000
vn 0.9946 -0.1034 0.0000
vn 1.0000 0.0000 0.0000
vn 0.9946 0.1034 0.0000
vn 0.9563 0.2923 0.0000
vn 0.8575 0.5146 0.0000
vn 0.6994 0.7147 0.0000
vn 0.5183 0.8552 0.0000
vn 0.3514 0.9362 0.0000
vn 0.2153 0.9766 0.0000
vn 0.1115 0.9938 0.0000
vn 0.0382 0.9993 0.0000
vn 0.0000 1.0000 0.0000
vn -0.0382 0.9993 0.0000
vn -0.1115 0.9938 0.0000
vn -0.2153 0.9766 0.0000
vn -0.3514 0.9362 0.0000
vn -0.5183 0.8552 0.0000
vn -0.6994 0.7147 0.0000
vn -0.8575 0.5146 0.0000
vn -0.9563 0.2923 0.0000
vn -0.9946 0.1034 0.0000
vn -1.0000 0.0000 0.0000
vn -0.9865 -0.0000 0.1638
vn -0.9808 -0.1020 0.1659
vn -0.9426 -0.2881 0.1688
vn -0.8454 -0.5073 0.1669
vn -0.6907 -0.7058 0.1576
vn -0.5130 -0.8464 0.1433
vn -0.3485 -0.9285 0.1284
vn -0.2138 -0.9700 0.1161
vn -0.1109 -0.9880 0.1072
vn -0.0380 -0.9941 0.1019
vn 0.0000 -0.9950 0.1001
vn 0.0380 -0.9941 0.1019
vn 0.1109 -0.9880 0.1072
vn 0.2138 -0.9700 0.1161
vn 0.3485 -0.9285 0.1284
vn 0.5130 -0.8464 0.1433
vn 0.6907 -0.7058 0.1576
vn 0.8454 -0.5073 0.1669
vn 0.9426 -0.2881 0.1688
vn 0.9808 -0.1020 0.1659
vn 0.9865 0.0000 0.1638
vn 0.9808 0.1020 0.1659
vn 0.9426 0.2881 0.1688
vn 0.8454 0.5073 0.1669
vn 0.6907 0.7058 0.1576
vn 0.5130 0.8464 0.1433
vn 0.3485 0.9285 0.1284
vn 0.2138 0.9700 0.1161
vn 0.1109 0.9880 0.1072
vn 0.0380 0.9941 0.1019
vn 0.0000 0.9950 0.1001
vn -0.0380 0.9941 0.1019
vn -0.1109 0.9880 0.1072
vn -0.2138 0.9700 0.1161
vn -0.3485 0.9285 0.1284
vn -0.5130 0.8464 0.1433
vn -0.6907 0.7058 0.1576
vn -0.8454 0.5073 0.1669
vn -0.9426 0.2881 0.1688
vn -0.9808 0.1020 0.1659
vn -0.9865 0.0000 0.1638
vn -0.8810 -0.0000 0.4731
vn -0.8737 -0.0909 0.4780
vn -0.8366 -0.2557 0.4844
vn -0.7521 -0.4514 0.4802
vn -0.6215 -0.6351 0.4587
vn -0.4694 -0.7745 0.4239
vn -0.3241 -0.8636 0.3862
vn -0.2014 -0.9135 0.3535
vn -0.1053 -0.9383 0.3293
vn -0.0362 -0.9486 0.3145
vn 0.0000 -0.9509 0.3095
vn 0.0362 -0.9486 0.3145
vn 0.1053 -0.9383 0.3293
vn 0.2014 -0.9135 0.3535
vn 0.3241 -0.8636 0.3862
vn 0.4694 -0.7745 0.4239
vn 0.6215 -0.6351 0.4587
vn 0.7521 -0.4514 0.4802
vn 0.8366 -0.2557 0.4844
vn 0.8737 -0.0909 0.4780
vn 0.8810 0.0000 0.4731
vn 0.8737 0.0909 0.4780
vn 0.8366 0.2557 0.4844
vn 0.7521 0.4514 0.4802
vn 0.6215 0.6351 0.4587
vn 0.4694 0.7745 0.4239
vn 0.3241 0.8636 0.3862
vn 0.2014 0.9135 0.3535
vn 0.1053 0.9383 0.3293
vn 0.0362 0.9486 0.3145
vn 0.0000 0.9509 0.3095
vn -0.0362 0.9486 0.3145
vn -0.1053 0.9383 0.3293
vn -0.2014 0.9135 0.3535
vn -0.3241 0.8636 0.3862
vn -0.4694 0.7745 0.4239
vn -0.6215 0.6351 0.4587
vn -0.7521 0.4514 0.4802
vn -0.8366 0.2557 0.4844
vn -0.8737 0.0909 0.4780
vn -0.8810 0.0000 0.4731
vn -0.6548 -0.0000 0.7558
vn -0.6464 -0.0672 0.7600
vn -0.6152 -0.1880 0.7656
vn -0.5553 -0.3332 0.7620
vn -0.4683 -0.4785 0.7428
vn -0.3654 -0.6029 0.7092
vn -0.2612 -0.6959 0.6689
vn -0.1671 -0.7580 0.6304
vn -0.0893 -0.7952 0.5997
vn -0.0311 -0.8140 0.5800
vn 0.0000 -0.8194 0.5732
vn 0.0311 -0.8140 0.5800
vn 0.0893 -0.7952 0.5997
vn 0.1671 -0.7580 0.6304
vn 0.2612 -0.6959 0.6689
vn 0.3654 -0.6029 0.7092
vn 0.4683 -0.4785 0.7428
vn 0.5553 -0.3332 0.7620
vn 0.6152 -0.1880 0.7656
vn 0.6464 -0.0672 0.7600
vn 0.6548 0.0000 0.7558
vn 0.6464 0.0672 0.7600
vn 0.6152 0.1880 0.7656
vn 0.5553 0.3332 0.7620
vn 0.4683 0.4785 0.7428
vn 0.3654 0.6029 0.7092
vn 0.2612 0.6959 0.6689
vn 0.1671 0.7580 0.6304
vn 0.0893 0.7952 0.5997
vn 0.0311 0.8140 0.5800
vn 0.0000 0.8194 0.5732
vn -0.0311 0.8140 0.5800
vn -0.0893 0.7952 0.5997
vn -0.1671 0.7580 0.6304
vn -0.2612 0.6959 0.6689
vn -0.3654 0.6029 0.7092
vn -0.4683 0.4785 0.7428
vn -0.5553 0.3332 0.7620
vn -0.6152 0.1880 0.7656
vn -0.6464 0.0672 0.7600
vn -0.6548 0.0000 0.7558
vn -0.4138 -0.0000 0.9104
vn -0.4071 -0.0423 0.9124
vn -0.3858 -0.1179 0.9150
vn -0.3492 -0.2095 0.9133
vn -0.2990 -0.3055 0.9040
vn -0.2396 -0.3954 0.8867
vn -0.1770 -0.4715 0.8639
vn -0.1168 -0.5299 0.8400
vn -0.0640 -0.5699 0.8192
vn -0.0226 -0.5927 0.8051
vn 0.0000 -0.6000 0.8000
vn 0.0226 -0.5927 0.8051
vn 0.0640 -0.5699 0.8192
vn 0.1168 -0.5299 0.8400
vn 0.1770 -0.4715 0.8639
vn 0.2396 -0.3954 0.8867
vn 0.2990 -0.3055 0.9040
vn 0.3492 -0.2095 0.9133
vn 0.3858 -0.1179 0.9150
vn 0.4071 -0.0423 0.9124
vn 0.4138 0.0000 0.9104
vn 0.4071 0.0423 0.9124
vn 0.3858 0.1179 0.9150
vn 0.3492 0.2095 0.9133
vn 0.2990 0.3055 0.9040
vn 0.2396 0.3954 0.8867
vn 0.1770 0.4715 0.8639
vn 0.1168 0.5299 0.8400
vn 0.0640 0.5699 0.8192
vn 0.0226 0.5927 0.8051
vn 0.0000 0.6000 0.8000
vn -0.0226 0.5927 0.8051
vn -0.0640 0.5699 0.8192
vn -0.1168 0.5299 0.8400
vn -0.1770 0.4715 0.8639
vn -0.2396 0.3954 0.8867
vn -0.2990 0.3055 0.9040
vn -0.3492 0.2095 0.9133
vn -0.3858 0.1179 0.9150
vn -0.4071 0.0423 0.9124
vn -0.4138 0.0000 0.9104
vn -0.2320 -0.0000 0.9727
vn -0.2278 -0.0237 0.9734
vn -0.2155 -0.0658 0.9743
vn -0.1953 -0.1172 0.9737
vn -0.1684 -0.1721 0.9706
vn -0.1368 -0.2257 0.9646
vn -0.1028 -0.2738 0.9563
vn -0.0691 -0.3134 0.9471
vn -0.0385 -0.3426 0.9387
vn -0.0138 -0.3602 0.9328
vn 0.0000 -0.3661 0.9306
vn 0.0138 -0.3602 0.9328
vn 0.0385 -0.3426 0.9387
vn 0.0691 -0.3134 0.9471
vn 0.1028 -0.2738 0.9563
vn 0.1368 -0.2257 0.9646
vn 0.1684 -0.1721 0.9706
vn 0.1953 -0.1172 0.9737
vn 0.2155 -0.0658 0.9743
vn 0.2278 -0.0237 0.9734
vn 0.2320 0.0000 0.9727
vn 0.2278 0.0237 0.9734
vn 0.2155 0.0658 0.9743
vn 0.1953 0.1172 0.9737
vn 0.1684 0.1721 0.9706
vn 0.1368 0.2257 0.9646
vn 0.1028 0.2738 0.9563
vn 0.0691 0.3134 0.9471
vn 0.0385 0.3426 0.9387
vn 0.0138 0.3602 0.9328
vn 0.0000 0.3661 0.9306
vn -0.0138 0.3602 0.9328
vn -0.0385 0.3426 0.9387
vn -0.0691 0.3134 0.9471
vn -0.1028 0.2738 0.9563
vn -0.1368 0.2257 0.9646
vn -0.1684 0.1721 0.9706
vn -0.1953 0.1172 0.9737
vn -0.2155 0.0658 0.9743
vn -0.2278 0.0237 0.9734
vn -0.2320 0.0000 0.9727
vn -0.1103 -0.0000 0.9939
vn -0.1083 -0.0113 0.9941
vn -0.1023 -0.0313 0.9943
vn -0.0928 -0.0557 0.9941
vn -0.0802 -0.0820 0.9934
vn -0.0654 -0.1080 0.9920
vn -0.0495 -0.1319 0.9900
vn -0.0335 -0.1521 0.9878
vn -0.0188 -0.1674 0.9857
vn -0.0068 -0.1769 0.9842
vn 0.0000 -0.1801 0.9837
vn 0.0068 -0.1769 0.9842
vn 0.0188 -0.1674 0.9857
vn 0.0335 -0.1521 0.9878
vn 0.0495 -0.1319 0.9900
vn 0.0654 -0.1080 0.9920
vn 0.0802 -0.0820 0.9934
vn 0.0928 -0.0557 0.9941
vn 0.1023 -0.0313 0.9943
vn 0.1083 -0.0113 0.9941
vn 0.1103 0.0000 0.9939
vn 0.1083 0.0113 0.9941
vn 0.1023 0.0313 0.9943
vn 0.0928 0.0557 0.9941
vn 0.0802 0.0820 0.9934
vn 0.0654 0.1080 0.9920
vn 0.0495 0.1319 0.9900
vn 0.0335 0.1521 0.9878
vn 0.0188 0.1674 0.9857
vn 0.0068 0.1769 0.9842
vn 0.0000 0.1801 0.9837
vn -0.0068 0.1769 0.9842
vn -0.0188 0.1674 0.9857
vn -0.0335 0.1521 0.9878
vn -0.0495 0.1319 0.9900
vn -0.0654 0.1080 0.9920
vn -0.0802 0.0820 0.9934
vn -0.0928 0.0557 0.9941
vn -0.1023 0.0313 0.9943
vn -0.1083 0.0113 0.9941
vn -0.1103 0.0000 0.9939
vn -0.0343 -0.0000 0.9994
vn -0.0337 -0.0035 0.9994
vn -0.0318 -0.0097 0.9994
vn -0.0288 -0.0173 0.9994
vn -0.0250 -0.0255 0.9994
vn -0.0204 -0.0336 0.9992
vn -0.0154 -0.0412 0.9990
vn -0.0105 -0.0476 0.9988
vn -0.0059 -0.0524 0.9986
vn -0.0021 -0.0555 0.9985
vn 0.0000 -0.0565 0.9984
vn 0.0021 -0.0555 0.9985
vn 0.0059 -0.0524 0.9986
vn 0.0105 -0.0476 0.9988
vn 0.0154 -0.0412 0.9990
vn 0.0204 -0.0336 0.9992
vn 0.0250 -0.0255 0.9994
vn 0.0288 -0.0173 0.9994
vn 0.0318 -0.0097 0.9994
vn 0.0337 -0.0035 0.9994
vn 0.0343 0.0000 0.9994
vn 0.0337 0.0035 0.9994
vn 0.0318 0.0097 0.9994
vn 0.0288 0.0173 0.9994
vn 0.0250 0.0255 0.9994
vn 0.0204 0.0336 0.9992
vn 0.0154 0.0412 0.9990
vn 0.0105 0.0476 0.9988
vn 0.0059 0.0524 0.9986
vn 0.0021 0.0555 0.9985
vn 0.0000 0.0565 0.9984
vn -0.0021 0.0555 0.9985
vn -0.0059 0.0524 0.9986
vn -0.0105 0.0476 0.9988
vn -0.0154 0.0412 0.9990
vn -0.0204 0.0336 0.9992
vn -0.0250 0.0255 0.9994
vn -0.0288 0.0173 0.9994
vn -0.0318 0.0097 0.9994
vn -0.0337 0.0035 0.9994
vn -0.0343 0.0000 0.9994
vn -0.0000 -0.0000 1.0000
vn -0.0000 -0.0000 1.0000
vn -0.0000 -0.0000 1.0000
vn -0.0000 -0.0000 1.0000
vn -0.0000 -0.0000 1.0000
vn -0.0000 -0.0000 1.0000
vn -0.0000 -0.0000 1.0000
vn -0.0000 -0.0000 1.0000
vn -0.0000 -0.0000 1.0000
vn -0.0000 -0.0000 1.0000
vn 0.0000 -0.0000 1.0000
vn 0.0000 -0.0000 1.0000
vn 0.0000 -0.0000 1.0000
vn 0.0000 -0.0000 1.0000
vn 0.0000 -0.0000 1.0000
vn 0.0000 -0.0000 1.0000
vn 0.0000 -0.0000 1.0000
vn 0.0000 -0.0000 1.0000
vn 0.0000 -0.0000 1.0000
vn 0.0000 -0.0000 1.0000
vn 0.0000 0.0000 1.0000
vn 0.0000 0.0000 1.0000
vn 0.0000 0.0000 1.0000
vn 0.0000 0.0000 1.0000
vn 0.0000 0.0000 1.0000
vn 0.0000 0.0000 1.0000
vn 0.0000 0.0000 1.0000
vn 0.0000 0.0000 1.0000
vn 0.0000 0.0000 1.0000
vn 0.0000 0.0000 1.0000
vn 0.0000 0.0000 1.0000
vn -0.0000 0.0000 1.0000
vn -0.0000 0.0000 1.0000
vn -0.0000 0.0000 1.0000
vn -0.0000 0.0000 1.0000
vn -0.0000 0.0000 1.0000
vn -0.0000 0.0000 1.0000
vn -0.0000 0.0000 1.0000
vn -0.0000 0.0000 1.0000
vn -0.0000 0.0000 1.0000
vn -0.0000 0.0000 1.0000
f 1/1/1 2/2/2 43/43/43
f 2/2/2 3/3/3 44/44/44
f 3/3/3 4/4/4 45/45/45
f 4/4/4 5/5/5 46/46/46
f 5/5/5 6/6/6 47/47/47
f 6/6/6 7/7/7 48/48/48
f 7/7/7 8/8/8 49/49/49
f 8/8/8 9/9/9 50/50/50
f 9/9/9 10/10/10 51/51/51
f 10/10/10 11/11/11 52/52/52
f 11/11/11 12/12/12 53/53/53
f 12/12/12 13/13/13 54/54/54
f 13/13/13 14/14/14 55/55/55
f 14/14/14 15/15/15 56/56/56
f 15/15/15 16/16/16 57/57/57
f 16/16/16 17/17/17 58/58/58
f 17/17/17 18/18/18 59/59/59
f 18/18/18 19/19/19 60/60/60
f 19/19/19 20/20/20 61/61/61
f 20/20/20 21/21/21 62/62/62
f 21/21/21 22/22/22 63/63/63
f 22/22/22 23/23/23 64/64/64
f 23/23/23 24/24/24 65/65/65
f 24/24/24 25/25/25 66/66/66
f 25/25/25 26/26/26 67/67/67
f 26/26/26 27/27/27 68/68/68
f 27/27/27 28/28/28 69/69/69
f 28/28/28 29/29/29 70/70/70
f 29/29/29 30/30/30 71/71/71
f 30/30/30 31/31/31 72/72/72
f 31/31/31 32/32/32 73/73/73
f 32/32/32 33/33/33 74/74/74
f 33/33/33 34/34/34 75/75/75
f 34/34/34 35/35/35 76/76/76
f 35/35/35 36/36/36 77/77/77
f 36/36/36 37/37/37 78/78/78
f 37/37/37 38/38/38 79/79/79
f 38/38/38 39/39/39 80/80/80
f 39/39/39 40/40/40 81/81/81
f 40/40/40 41/41/41 82/82/82
f 42/42/42 43/43/43 84/84/84
f 43/43/43 44/44/44 85/85/85
f 44/44/44 45/45/45 86/86/86
f 45/45/45 46/46/46 87/87/87
f 46/46/46 47/47/47 88/88/88
f 47/47/47 48/48/48 89/89/89
f 48/48/48 49/49/49 90/90/90
f 49/49/49 50/50/50 91/91/91
f 50/50/50 51/51/51 92/92/92
f 51/51/51 52/52/52 93/93/93
f 52/52/52 53/53/53 94/94/94
f 53/53/53 54/54/54 95/95/95
f 54/54/54 55/55/55 96/96/96
f 55/55/55 56/56/56 97/97/97
f 56/56/56 57/57/57 98/98/98
f 57/57/57 58/58/58 99/99/99
f 58/58/58 59/59/59 100/100/100
f 59/59/59 60/60/60 101/101/101
f 60/60/60 61/61/61 102/102/102
f 61/61/61 62/62/62 103/103/103
f 62/62/62 63/63/63 104/104/104
f 63/63/63 64/64/64 105/105/105
f 64/64/64 65/65/65 106/106/106
f 65/65/65 66/66/66 107/107/107
f 66/66/66 67/67/67 108/108/108
f 67/67/67 68/68/68 109/109/109
f 68/68/68 69/69/69 110/110/110
f 69/69/69 70/70/70 111/111/111
f 70/70/70 71/71/71 112/112/112
f 71/71/71 72/72/72 113/113/113
f 72/72/72 73/73/73 114/114/114
f 73/73/73 74/74/74 115/115/115
f 74/74/74 75/75/75 116/116/116
f 75/75/75 76/76/76 117/117/117
f 76/76/76 77/77/77 118/118/118
f 77/77/77 78/78/78 119/119/119
f 78/78/78 79/79/79 120/120/120
f 79/79/79 80/80/80 121/121/121
f 80/80/80 81/81/81 122/122/122
f 81/81/81 82/82/82 123/123/123
f 83/83/83 84/84/84 125/125/125
f 84/84/84 85/85/85 126/126/126
f 85/85/85 86/86/86 127/127/127
f 86/86/86 87/87/87 128/128/128
f 87/87/87 88/88/88 129/129/129
f 88/88/88 89/89/89 130/130/130
f 89/89/89 90/90/90 131/131/131
f 90/90/90 91/91/91 132/132/132
f 91/91/91 92/92/92 133/133/133
f 92/92/92 93/93/93 134/134/134
f 93/93/93 94/94/94 135/135/135
f 94/94/94 95/95/95 136/136/136
f 95/95/95 96/96/96 137/137/137
f 96/96/96 97/97/97 138/138/138
f 97/97/97 98/98/98 139/139/139
f 98/98/98 99/99/99 140/140/140
f 99/99/99 100/100/100 141/141/141
f 100/100/100 101/101/101 142/142/142
f 101/101/101 102/102/102 143/143/143
f 102/102/102 103/103/103 144/144/144
f 103/103/103 104/104/104 145/145/145
f 104/104/104 105/105/105 146/146/146
f 105/105/105 106/106/106 147/147/147
f 106/106/106 107/107/107 148/148/148
f 107/107/107 108/108/108 149/149/149
f 108/108/108 109/109/109 150/150/150
f 109/109/109 110/110/110 151/151/151
f 110/110/110 111/111/111 152/152/152
f 111/111/111 112/112/112 153/153/153
f 112/112/112 113/113/113 154/154/154
f 113/113/113 114/114/114 155/155/155
f 114/114/114 115/115/115 156/156/156
f 115/115/115 116/116/116 157/157/157
f 116/116/116 117/117/117 158/158/158
f 117/117/117 118/118/118 159/159/159
f 118/118/118 119/119/119 160/160/160
f 119/119/119 120/120/120 161/161/161
f 120/120/120 121/121/121 162/162/162
f 121/121/121 122/122/122 163/163/163
f 122/122/122 123/123/123 164/164/164
f 124/124/124 125/125/125 166/166/166
f 125/125/125 126/126/126 167/167/167
f 126/126/126 127/127/127 168/168/168
f 127/127/127 128/128/128 169/169/169
f 128/128/128 129/129/129 170/170/170
f 129/129/129 130/130/130 171/171/171
f 130/130/130 131/131/131 172/172/172
f 131/131/131 132/132/132 173/173/173
f 132/132/132 133/133/133 174/174/174
f 133/133/133 134/134/134 175/175/175
f 134/134/134 135/135/135 176/176/176
f 135/135/135 136/136/136 177/177/177
f 136/136/136 137/137/137 178/178/178
f 137/137/137 138/138/138 179/179/179
f 138/138/138 139/139/139 180/180/180
f 139/139/139 140/140/140 181/181/181
f 140/140/140 141/141/141 182/182/182
f 141/141/141 142/142/142 183/183/183
f 142/142/142 143/143/143 184/184/184
f 143/143/143 144/144/144 185/185/185
f 144/144/144 145/145/145 186/186/186
f 145/145/145 146/146/146 187/187/187
f 146/146/146 147/147/147 188/188/188
f 147/147/147 148/148/148 189/189/189
f 148/148/148 149/149/149 190/190/190
f 149/149/149 150/150/150 191/191/191
f 150/150/150 151/151/151 192/192/192
f 151/151/151 152/152/152 193/193/193
f 152/152/152 153/153/153 194/194/194
f 153/153/153 154/154/154 195/195/195
f 154/154/154 155/155/155 196/196/196
f 155/155/155 156/156/156 197/197/197
f 156/156/156 157/157/157 198/198/198
f 157/157/157 158/158/158 199/199/199
f 158/158/158 159/159/159 200/200/200
f 159/159/159 160/160/160 201/201/201
f 160/160/160 161/161/161 202/202/202
f 161/161/161 162/162/162 203/203/203
f 162/162/162 163/163/163 204/204/204
f 163/163/163 164/164/164 205/205/205
f 165/165/165 166/166/166 207/207/207
f 166/166/166 167/167/167 208/208/208
f 167/167/167 168/168/168 209/209/209
f 168/168/168 169/169/169 210/210/210
f 169/169/169 170/170/170 211/211/211
f 170/170/170 171/171/171 212/212/212
f 171/171/171 172/172/172 213/213/213
f 172/172/172 173/173/173 214/214/214
f 173/173/173 174/174/174 215/215/215
f 174/174/174 175/175/175 216/216/216
f 175/175/175 176/176/176 217/217/217
f 176/176/176 177/177/177 218/218/218
f 177/177/177 178/178/178 219/219/219
f 178/178/178 179/179/179 220/220/220
f 179/179/179 180/180/180 221/221/221
f 180/180/180 181/181/181 222/222/222
f 181/181/181 182/182/182 223/223/223
f 182/182/182 183/183/183 224/224/224
f 183/183/183 184/184/184 225/225/225
f 184/184/184 185/185/185 226/226/226
f 185/185/185 186/186/186 227/227/227
f 186/186/186 187/187/187 228/228/228
f 187/187/187 188/188/188 229/229/229
f 188/188/188 189/189/189 230/230/230
f 189/189/189 190/190/190 231/231/231
f 190/190/190 191/191/191 232/232/232
f 191/191/191 192/192/192 233/233/233
f 192/192/192 193/193/193 234/234/234
f 193/193/193 194/194/194 235/235/235
f 194/194/194 195/195/195 236/236/236
f 195/195/195 196/196/196 237/237/237
f 196/196/196 197/197/197 238/238/238
f 197/197/197 198/198/198 239/239/239
f 198/198/198 199/199/199 240/240/240
f 199/199/199 200/200/200 241/241/241
f 200/200/200 201/201/201 242/242/242
f 201/201/201 202/202/202 243/243/243
f 202/202/202 203/203/203 244/244/244
f 203/203/203 204/204/204 245/245/245
f 204/204/204 205/205/205 246/246/246
f 206/206/206 207/207/207 248/248/248
f 207/207/207 208/208/208 249/249/249
f 208/208/208 209/209/209 250/250/250
f 209/209/209 210/210/210 251/251/251
f 210/210/210 211/211/211 252/252/252
f 211/211/211 212/212/212 253/253/253
f 212/212/212 213/213/213 254/254/254
f 213/213/213 214/214/214 255/255/255
f 214/214/214 215/215/215 256/256/256
f 215/215/215 216/216/216 257/257/257
f 216/216/216 217/217/217 258/258/258
f 217/217/217 218/218/218 259/259/259
f 218/218/218 219/219/219 260/260/260
f 219/219/219 220/220/220 261/261/261
f 220/220/220 221/221/221 262/262/262
f 221/221/221 222/222/222 263/263/263
f 222/222/222 223/223/223 264/264/264
f 223/223/223 224/224/224 265/265/265
f 224/224/224 225/225/225 266/266/266
f 225/225/225 226/226/226 267/267/267
f 226/226/226 227/227/227 268/268/268
f 227/227/227 228/228/228 269/269/269
f 228/228/228 229/229/229 270/270/270
f 229/229/229 230/230/230 271/271/271
f 230/230/230 231/231/231 272/272/272
f 231/231/231 232/232/232 273/273/273
f 232/232/232 233/233/233 274/274/274
f 233/233/233 234/234/234 275/275/275
f 234/234/234 235/235/235 276/276/276
f 235/235/235 236/236/236 277/277/277
f 236/236/236 237/237/237 278/278/278
f 237/237/237 238/238/238 279/279/279
f 238/238/238 239/239/239 280/280/280
f 239/239/239 240/240/240 281/281/281
f 240/240/240 241/241/241 282/282/282
f 241/241/241 242/242/242 283/283/283
f 242/242/242 243/243/243 284/284/284
f 243/243/243 244/244/244 285/285/285
f 244/244/244 245/245/245 286/286/286
f 245/245/245 246/246/246 287/287/287
f 247/247/247 248/248/248 289/289/289
f 248/248/248 249/249/249 290/290/290
f 249/249/249 250/250/250 291/291/291
f 250/250/250 251/251/251 292/292/292
f 251/251/251 252/252/252 293/293/293
f 252/252/252 253/253/253 294/294/294
f 253/253/253 254/254/254 295/295/295
f 254/254/254 255/255/255 296/296/296
f 255/255/255 256/256/256 297/297/297
f 256/256/256 257/257/257 298/298/298
f 257/257/257 258/258/258 299/299/299
f 258/258/258 259/259/259 300/300/300
f 259/259/259 260/260/260 301/301/301
f 260/260/260 261/261/261 302/302/302
f 261/261/261 262/262/262 303/303/303
f 262/262/262 263/263/263 304/304/304
f 263/263/263 264/264/264 305/305/305
f 264/264/264 265/265/265 306/306/306
f 265/265/265 266/266/266 307/307/307
f 266/266/266 267/267/267 308/308/308
f 267/267/267 268/268/268 309/309/309
f 268/268/268 269/269/269 310/310/310
f 269/269/269 270/270/270 311/311/311
f 270/270/270 271/271/271 312/312/312
f 271/271/271 272/272/272 313/313/313
f 272/272/272 273/273/273 314/314/314
f 273/273/273 274/274/274 315/315/315
f 274/274/274 275/275/275 316/316/316
f 275/275/275 276/276/276 317/317/317
f 276/276/276 277/277/277 318/318/318
f 277/277/277 278/278/278 319/319/319
f 278/278/278 279/279/279 320/320/320
f 279/279/279 280/280/280 321/321/321
f 280/280/280 281/281/281 322/322/322
f 281/281/281 282/282/282 323/323/323
f 282/282/282 283/283/283 324/324/324
f 283/283/283 284/284/284 325/325/325
f 284/284/284 285/285/285 326/326/326
f 285/285/285 286/286/286 327/327/327
f 286/286/286 287/287/287 328/328/328
f 288/288/288 289/289/289 330/330/330
f 289/289/289 290/290/290 331/331/331
f 290/290/290 291/291/291 332/332/332
f 291/291/291 292/292/292 333/333/333
f 292/292/292 293/293/293 334/334/334
f 293/293/293 294/294/294 335/335/335
f 294/294/294 295/295/295 336/336/336
f 295/295/295 296/296/296 337/337/337
f 296/296/296 297/297/297 338/338/338
f 297/297/297 298/298/298 339/339/339
f 298/298/298 299/299/299 340/340/340
f 299/299/299 300/300/300 341/341/341
f 300/300/300 301/301/301 342/342/342
f 301/301/301 302/302/302 343/343/343
f 302/302/302 303/303/303 344/344/344
f 303/303/303 304/304/304 345/345/345
f 304/304/304 305/305/305 346/346/346
f 305/305/305 306/306/306 347/347/347
f 306/306/306 307/307/307 348/348/348
f 307/307/307 308/308/308 349/349/349
f 308/308/308 309/309/309 350/350/350
f 309/309/309 310/310/310 351/351/351
f 310/310/310 311/311/311 352/352/352
f 311/311/311 312/312/312 353/353/353
f 312/312/312 313/313/313 354/354/354
f 313/313/313 314/314/314 355/355/355
f 314/314/314 315/315/315 356/356/356
f 315/315/315 316/316/316 357/357/357
f 316/316/316 317/317/317 358/358/358
f 317/317/317 318/318/318 359/359/359
f 318/318/318 319/319/319 360/360/360
f 319/319/319 320/320/320 361/361/361
f 320/320/320 321/321/321 362/362/362
f 321/321/321 322/322/322 363/363/363
f 322/322/322 323/323/323 364/364/364
f 323/323/323 324/324/324 365/365/365
f 324/324/324 325/325/325 366/366/366
f 325/325/325 326/326/326 367/367/367
f 326/326/326 327/327/327 368/368/368
f 327/327/327 328/328/328 369/369/369
f 329/329/329 330/330/330 371/371/371
f 330/330/330 331/331/331 372/372/372
f 331/331/331 332/332/332 373/373/373
f 332/332/332 333/333/333 374/374/374
f 333/333/333 334/334/334 375/375/375
f 334/334/334 335/335/335 376/376/376
f 335/335/335 336/336/336 377/377/377
f 336/336/336 337/337/337 378/378/378
f 337/337/337 338/338/338 379/379/379
f 338/338/338 339/339/339 380/380/380
f 339/339/339 340/340/340 381/381/381
f 340/340/340 341/341/341 382/382/382
f 341/341/341 342/342/342 383/383/383
f 342/342/342 343/343/343 384/384/384
f 343/343/343 344/344/344 385/385/385
f 344/344/344 345/345/345 386/386/386
f 345/345/345 346/346/346 387/387/387
f 346/346/346 347/347/347 388/388/388
f 347/347/347 348/348/348 389/389/389
f 348/348/348 349/349/349 390/390/390
f 349/349/349 350/350/350 391/391/391
f 350/350/350 351/351/351 392/392/392
f 351/351/351 352/352/352 393/393/393
f 352/352/352 353/353/353 394/394/394
f 353/353/353 354/354/354 395/395/395
f 354/354/354 355/355/355 396/396/396
f 355/355/355 356/356/356 397/397/397
f 356/356/356 357/357/357 398/398/398
f 357/357/357 358/358/358 399/399/399
f 358/358/358 359/359/359 400/400/400
f 359/359/359 360/360/360 401/401/401
f 360/360/360 361/361/361 402/402/402
f 361/361/361 362/362/362 403/403/403
f 362/362/362 363/363/363 404/404/404
f 363/363/363 364/364/364 405/405/405
f 364/364/364 365/365/365 406/406/406
f 365/365/365 366/366/366 407/407/407
f 366/366/366 367/367/367 408/408/408
f 367/367/367 368/368/368 409/409/409
f 368/368/368 369/369/369 410/410/410
f 370/370/370 371/371/371 412/412/412
f 371/371/371 372/372/372 413/413/413
f 372/372/372 373/373/373 414/414/414
f 373/373/373 374/374/374 415/415/415
f 374/374/374 375/375/375 416/416/416
f 375/375/375 376/376/376 417/417/417
f 376/376/376 377/377/377 418/418/418
f 377/377/377 378/378/378 419/419/419
f 378/378/378 379/379/379 420/420/420
f 379/379/379 380/380/380 421/421/421
f 380/380/380 381/381/381 422/422/422
f 381/381/381 382/382/382 423/423/423
f 382/382/382 383/383/383 424/424/424
f 383/383/383 384/384/384 425/425/425
f 384/384/384 385/385/385 426/426/426
f 385/385/385 386/386/386 427/427/427
f 386/386/386 387/387/387 428/428/428
f 387/387/387 388/388/388 429/429/429
f 388/388/388 389/389/389 430/430/430
f 389/389/389 390/390/390 431/431/431
f 390/390/390 391/391/391 432/432/432
f 391/391/391 392/392/392 433/433/433
f 392/392/392 393/393/393 434/434/434
f 393/393/393 394/394/394 435/435/435
f 394/394/394 395/395/395 436/436/436
f 395/395/395 396/396/396 437/437/437
f 396/396/396 397/397/397 438/438/438
f 397/397/397 398/398/398 439/439/439
f 398/398/398 399/399/399 440/440/440
f 399/399/399 400/400/400 441/441/441
f 400/400/400 401/401/401 442/442/442
f 401/401/401 402/402/402 443/443/443
f 402/402/402 403/403/403 444/444/444
f 403/403/403 404/404/404 445/445/445
f 404/404/404 405/405/405 446/446/446
f 405/405/405 406/406/406 447/447/447
f 406/406/406 407/407/407 448/448/448
f 407/407/407 408/408/408 449/449/449
f 408/408/408 409/409/409 450/450/450
f 409/409/409 410/410/410 451/451/451
f 411/411/411 412/412/412 453/453/453
f 412/412/412 413/413/413 454/454/454
f 413/413/413 414/414/414 455/455/455
f 414/414/414 415/415/415 456/456/456
f 415/415/415 416/416/416 457/457/457
f 416/416/416 417/417/417 458/458/458
f 417/417/417 418/418/418 459/459/459
f 418/418/418 419/419/419 460/460/460
f 419/419/419 420/420/420 461/461/461
f 420/420/420 421/421/421 462/462/462
f 421/421/421 422/422/422 463/463/463
f 422/422/422 423/423/423 464/464/464
f 423/423/423 424/424/424 465/465/465
f 424/424/424 425/425/425 466/466/466
f 425/425/425 426/426/426 467/467/467
f 426/426/426 427/427/427 468/468/468
f 427/427/427 428/428/428 469/469/469
f 428/428/428 429/429/429 470/470/470
f 429/429/429 430/430/430 471/471/471
f 430/430/430 431/431/431 472/472/472
f 431/431/431 432/432/432 473/473/473
f 432/432/432 433/433/433 474/474/474
f 433/433/433 434/434/434 475/475/475
f 434/434/434 435/435/435 476/476/476
f 435/435/435 436/436/436 477/477/477
f 436/436/436 437/437/437 478/478/478
f 437/437/437 438/438/438 479/479/479
f 438/438/438 439/439/439 480/480/480
f 439/439/439 440/440/440 481/481/481
f 440/440/440 441/441/441 482/482/482
f 441/441/441 442/442/442 483/483/483
f 442/442/442 443/443/443 484/484/484
f 443/443/443 444/444/444 485/485/485
f 444/444/444 445/445/445 486/486/486
f 445/445/445 446/446/446 487/487/487
f 446/446/446 447/447/447 488/488/488
f 447/447/447 448/448/448 489/489/489
f 448/448/448 449/449/449 490/490/490
f 449/449/449 450/450/450 491/491/491
f 450/450/450 451/451/451 492/492/492
f 452/452/452 453/453/453 494/494/494
f 453/453/453 454/454/454 495/495/495
f 454/454/454 455/455/455 496/496/496
f 455/455/455 456/456/456 497/497/497
f 456/456/456 457/457/457 498/498/498
f 457/457/457 458/458/458 499/499/499
f 458/458/458 459/459/459 500/500/500
f 459/459/459 460/460/460 501/501/501
f 460/460/460 461/461/461 502/502/502
f 461/461/461 462/462/462 503/503/503
f 462/462/462 463/463/463 504/504/504
f 463/463/463 464/464/464 505/505/505
f 464/464/464 465/465/465 506/506/506
f 465/465/465 466/466/466 507/507/507
f 466/466/466 467/467/467 508/508/508
f 467/467/467 468/468/468 509/509/509
f 468/468/468 469/469/469 510/510/510
f 469/469/469 470/470/470 511/511/511
f 470/470/470 471/471/471 512/512/512
f 471/471/471 472/472/472 513/513/513
f 472/472/472 473/473/473 514/514/514
f 473/473/473 474/474/474 515/515/515
f 474/474/474 475/475/475 516/516/516
f 475/475/475 476/476/476 517/517/517
f 476/476/476 477/477/477 518/518/518
f 477/477/477 478/478/478 519/519/519
f 478/478/478 479/479/479 520/520/520
f 479/479/479 480/480/480 521/521/521
f 480/480/480 481/481/481 522/522/522
f 481/481/481 482/482/482 523/523/523
f 482/482/482 483/483/483 524/524/524
f 483/483/483 484/484/484 525/525/525
f 484/484/484 485/485/485 526/526/526
f 485/485/485 486/486/486 527/527/527
f 486/486/486 487/487/487 528/528/528
f 487/487/487 488/488/488 529/529/529
f 488/488/488 489/489/489 530/530/530
f 489/489/489 490/490/490 531/531/531
f 490/490/490 491/491/491 532/532/532
f 491/491/491 492/492/492 533/533/533
f 493/493/493 494/494/494 535/535/535
f 494/494/494 495/495/495 536/536/536
f 495/495/495 496/496/496 537/537/537
f 496/496/496 497/497/497 538/538/538
f 497/497/497 498/498/498 539/539/539
f 498/498/498 499/499/499 540/540/540
f 499/499/499 500/500/500 541/541/541
f 500/500/500 501/501/501 542/542/542
f 501/501/501 502/502/502 543/543/543
f 502/502/502 503/503/503 544/544/544
f 503/503/503 504/504/504 545/545/545
f 504/504/504 505/505/505 546/546/546
f 505/505/505 506/506/506 547/547/547
f 506/506/506 507/507/507 548/548/548
f 507/507/507 508/508/508 549/549/549
f 508/508/508 509/509/509 550/550/550
f 509/509/509 510/510/510 551/551/551
f 510/510/510 511/511/511 552/552/552
f 511/511/511 512/512/512 553/553/553
f 512/512/512 513/513/513 554/554/554
f 513/513/513 514/514/514 555/555/555
f 514/514/514 515/515/515 556/556/556
f 515/515/515 516/516/516 557/557/557
f 516/516/516 517/517/517 558/558/558
f 517/517/517 518/518/518 559/559/559
f 518/518/518 519/519/519 560/560/560
f 519/519/519 520/520/520 561/561/561
f 520/520/520 521/521/521 562/562/562
f 521/521/521 522/522/522 563/563/563
f 522/522/522 523/523/523 564/564/564
f 523/523/523 524/524/524 565/565/565
f 524/524/524 525/525/525 566/566/566
f 525/525/525 526/526/526 567/567/567
f 526/526/526 527/527/527 568/568/568
f 527/527/527 528/528/528 569/569/569
f 528/528/528 529/529/529 570/570/570
f 529/529/529 530/530/530 571/571/571
f 530/530/530 531/531/531 572/572/572
f 531/531/531 532/532/532 573/573/573
f 532/532/532 533/533/533 574/574/574
f 534/534/534 535/535/535 576/576/576
f 535/535/535 536/536/536 577/577/577
f 536/536/536 537/537/537 578/578/578
f 537/537/537 538/538/538 579/579/579
f 538/538/538 539/539/539 580/580/580
f 539/539/539 540/540/540 581/581/581
f 540/540/540 541/541/541 582/582/582
f 541/541/541 542/542/542 583/583/583
f 542/542/542 543/543/543 584/584/584
f 543/543/543 544/544/544 585/585/585
f 544/544/544 545/545/545 586/586/586
f 545/545/545 546/546/546 587/587/587
f 546/546/546 547/547/547 588/588/588
f 547/547/547 548/548/548 589/589/589
f 548/548/548 549/549/549 590/590/590
f 549/549/549 550/550/550 591/591/591
f 550/550/550 551/551/551 592/592/592
f 551/551/551 552/552/552 593/593/593
f 552/552/552 553/553/553 594/594/594
f 553/553/553 554/554/554 595/595/595
f 554/554/554 555/555/555 596/596/596
f 555/555/555 556/556/556 597/597/597
f 556/556/556 557/557/557 598/598/598
f 557/557/557 558/558/558 599/599/599
f 558/558/558 559/559/559 600/600/600
f 559/559/559 560/560/560 601/601/601
f 560/560/560 561/561/561 602/602/602
f 561/561/561 562/562/562 603/603/603
f 562/562/562 563/563/563 604/604/604
f 563/563/563 564/564/564 605/605/605
f 564/564/564 565/565/565 606/606/606
f 565/565/565 566/566/566 607/607/607
f 566/566/566 567/567/567 608/608/608
f 567/567/567 568/568/568 609/609/609
f 568/568/568 569/569/569 610/610/610
f 569/569/569 570/570/570 611/611/611
f 570/570/570 571/571/571 612/612/612
f 571/571/571 572/572/572 613/613/613
f 572/572/572 573/573/573 614/614/614
f 573/573/573 574/574/574 615/615/615
f 575/575/575 576/576/576 617/617/617
f 576/576/576 577/577/577 618/618/618
f 577/577/577 578/578/578 619/619/619
f 578/578/578 579/579/579 620/620/620
f 579/579/579 580/580/580 621/621/621
f 580/580/580 581/581/581 622/622/622
f 581/581/581 582/582/582 623/623/623
f 582/582/582 583/583/583 624/624/624
f 583/583/583 584/584/584 625/625/625
f 584/584/584 585/585/585 626/626/626
f 585/585/585 586/586/586 627/627/627
f 586/586/586 587/587/587 628/628/628
f 587/587/587 588/588/588 629/629/629
f 588/588/588 589/589/589 630/630/630
f 589/589/589 590/590/590 631/631/631
f 590/590/590 591/591/591 632/632/632
f 591/591/591 592/592/592 633/633/633
f 592/592/592 593/593/593 634/634/634
f 593/593/593 594/594/594 635/635/635
f 594/594/594 595/595/595 636/636/636
f 595/595/595 596/596/596 637/637/637
f 596/596/596 597/597/597 638/638/638
f 597/597/597 598/598/598 639/639/639
f 598/598/598 599/599/599 640/640/640
f 599/599/599 600/600/600 641/641/641
f 600/600/600 601/601/601 642/642/642
f 601/601/601 602/602/602 643/643/643
f 602/602/602 603/603/603 644/644/644
f 603/603/603 604/604/604 645/645/645
f 604/604/604 605/605/605 646/646/646
f 605/605/605 606/606/606 647/647/647
f 606/606/606 607/607/607 648/648/648
f 607/607/607 608/608/608 649/649/649
f 608/608/608 609/609/609 650/650/650
f 609/609/609 610/610/610 651/651/651
f 610/610/610 611/611/611 652/652/652
f 611/611/611 612/612/612 653/653/653
f 612/612/612 613/613/613 654/654/654
f 613/613/613 614/614/614 655/655/655
f 614/614/614 615/615/615 656/656/656
f 616/616/616 617/617/617 658/658/658
f 617/617/617 618/618/618 659/659/659
f 618/618/618 619/619/619 660/660/660
f 619/619/619 620/620/620 661/661/661
f 620/620/620 621/621/621 662/662/662
f 621/621/621 622/622/622 663/663/663
f 622/622/622 623/623/623 664/664/664
f 623/623/623 624/624/624 665/665/665
f 624/624/624 625/625/625 666/666/666
f 625/625/625 626/626/626 667/667/667
f 626/626/626 627/627/627 668/668/668
f 627/627/627 628/628/628 669/669/669
f 628/628/628 629/629/629 670/670/670
f 629/629/629 630/630/630 671/671/671
f 630/630/630 631/631/631 672/672/672
f 631/631/631 632/632/632 673/673/673
f 632/632/632 633/633/633 674/674/674
f 633/633/633 634/634/634 675/675/675
f 634/634/634 635/635/635 676/676/676
f 635/635/635 636/636/636 677/677/677
f 636/636/636 637/637/637 678/678/678
f 637/637/637 638/638/638 679/679/679
f 638/638/638 639/639/639 680/680/680
f 639/639/639 640/640/640 681/681/681
f 640/640/640 641/641/641 682/682/682
f 641/641/641 642/642/642 683/683/683
f 642/642/642 643/643/643 684/684/684
f 643/643/643 644/644/644 685/685/685
f 644/644/644 645/645/645 686/686/686
f 645/645/645 646/646/646 687/687/687
f 646/646/646 647/647/647 688/688/688
f 647/647/647 648/648/648 689/689/689
f 648/648/648 649/649/649 690/690/690
f 649/649/649 650/650/650 691/691/691
f 650/650/650 651/651/651 692/692/692
f 651/651/651 652/652/652 693/693/693
f 652/652/652 653/653/653 694/694/694
f 653/653/653 654/654/654 695/695/695
f 654/654/654 655/655/655 696/696/696
f 655/655/655 656/656/656 697/697/697
f 1/1/1 43/43/43 42/42/42
f 2/2/2 44/44/44 43/43/43
f 3/3/3 45/45/45 44/44/44
f 4/4/4 46/46/46 45/45/45
f 5/5/5 47/47/47 46/46/46
f 6/6/6 48/48/48 47/47/47
f 7/7/7 49/49/49 48/48/48
f 8/8/8 50/50/50 49/49/49
f 9/9/9 51/51/51 50/50/50
f 10/10/10 52/52/52 51/51/51
f 11/11/11 53/53/53 52/52/52
f 12/12/12 54/54/54 53/53/53
f 13/13/13 55/55/55 54/54/54
f 14/14/14 56/56/56 55/55/55
f 15/15/15 57/57/57 56/56/56
f 16/16/16 58/58/58 57/57/57
f 17/17/17 59/59/59 58/58/58
f 18/18/18 60/60/60 59/59/59
f 19/19/19 61/61/61 60/60/60
f 20/20/20 62/62/62 61/61/61
f 21/21/21 63/63/63 62/62/62
f 22/22/22 64/64/64 63/63/63
f 23/23/23 65/65/65 64/64/64
f 24/24/24 66/66/66 65/65/65
f 25/25/25 67/67/67 66/66/66
f 26/26/26 68/68/68 67/67/67
f 27/27/27 69/69/69 68/68/68
f 28/28/28 70/70/70 69/69/69
f 29/29/29 71/71/71 70/70/70
f 30/30/30 72/72/72 71/71/71
f 31/31/31 73/73/73 72/72/72
f 32/32/32 74/74/74 73/73/73
f 33/33/33 75/75/75 74/74/74
f 34/34/34 76/76/76 75/75/75
f 35/35/35 77/77/77 76/76/76
f 36/36/36 78/78/78 77/77/77
f 37/37/37 79/79/79 78/78/78
f 38/38/38 80/80/80 79/79/79
f 39/39/39 81/81/81 80/80/80
f 40/40/40 82/82/82 81/81/81
f 42/42/42 84/84/84 83/83/83
f 43/43/43 85/85/85 84/84/84
f 44/44/44 86/86/86 85/85/85
f 45/45/45 87/87/87 86/86/86
f 46/46/46 88/88/88 87/87/87
f 47/47/47 89/89/89 88/88/88
f 48/48/48 90/90/90 89/89/89
f 49/49/49 91/91/91 90/90/90
f 50/50/50 92/92/92 91/91/91
f 51/51/51 93/93/93 92/92/92
f 52/52/52 94/94/94 93/93/93
f 53/53/53 95/95/95 94/94/94
f 54/54/54 96/96/96 95/95/95
f 55/55/55 97/97/97 96/96/96
f 56/56/56 98/98/98 97/97/97
f 57/57/57 99/99/99 98/98/98
f 58/58/58 100/100/100 99/99/99
f 59/59/59 101/101/101 100/100/100
f 60/60/60 102/102/102 101/101/101
f 61/61/61 103/103/103 102/102/102
f 62/62/62 104/104/104 103/103/103
f 63/63/63 105/105/105 104/104/104
f 64/64/64 106/106/106 105/105/105
f 65/65/65 107/107/107 106/106/106
f 66/66/66 108/108/108 107/107/107
f 67/67/67 109/109/109 108/108/108
f 68/68/68 110/110/110 109/109/109
f 69/69/69 111/111/111 110/110/110
f 70/70/70 112/112/112 111/111/111
f 71/71/71 113/113/113 112/112/112
f 72/72/72 114/114/114 113/113/113
f 73/73/73 115/115/115 114/114/114
f 74/74/74 116/116/116 115/115/115
f 75/75/75 117/117/117 116/116/116
f 76/76/76 118/118/118 117/117/117
f 77/77/77 119/119/119 118/118/118
f 78/78/78 120/120/120 119/119/119
f 79/79/79 121/121/121 120/120/120
f 80/80/80 122/122/122 121/121/121
f 81/81/81 123/123/123 122/122/122
f 83/83/83 125/125/125 124/124/124
f 84/84/84 126/126/126 125/125/125
f 85/85/85 127/127/127 126/126/126
f 86/86/86 128/128/128 127/127/127
f 87/87/87 129/129/129 128/128/128
f 88/88/88 130/130/130 129/129/129
f 89/89/89 131/131/131 130/130/130
f 90/90/90 132/132/132 131/131/131
f 91/91/91 133/133/133 132/132/132
f 92/92/92 134/134/134 133/133/133
f 93/93/93 135/135/135 134/134/134
f 94/94/94 136/136/136 135/135/135
f 95/95/95 137/137/137 136/136/136
f 96/96/96 138/138/138 137/137/137
f 97/97/97 139/139/139 138/138/138
f 98/98/98 140/140/140 139/139/139
f 99/99/99 141/141/141 140/140/140
f 100/100/100 142/142/142 141/141/141
f 101/101/101 143/143/143 142/142/142
f 102/102/102 144/144/144 143/143/143
f 103/103/103 145/145/145 144/144/144
f 104/104/104 146/146/146 145/145/145
f 105/105/105 147/147/147 146/146/146
f 106/106/106 148/148/148 147/147/147
f 107/107/107 149/149/149 148/148/148
f 108/108/108 150/150/150 149/149/149
f 109/109/109 151/151/151 150/150/150
f 110/110/110 152/152/152 151/151/151
f 111/111/111 153/153/153 152/152/152
f 112/112/112 154/154/154 153/153/153
f 113/113/113 155/155/155 154/154/154
f 114/114/114 156/156/156 155/155/155
f 115/115/115 157/157/157 156/156/156
f 116/116/116 158/158/158 157/157/157
f 117/117/117 159/159/159 158/158/158
f 118/118/118 160/160/160 159/159/159
f 119/119/119 161/161/161 160/160/160
f 120/120/120 162/162/162 161/161/161
f 121/121/121 163/163/163 162/162/162
f 122/122/122 164/164/164 163/163/163
f 124/124/124 166/166/166 165/165/165
f 125/125/125 167/167/167 166/166/166
f 126/126/126 168/168/168 167/167/167
f 127/127/127 169/169/169 168/168/168
f 128/128/128 170/170/170 169/169/169
f 129/129/129 171/171/171 170/170/170
f 130/130/130 172/172/172 171/171/171
f 131/131/131 173/173/173 172/172/172
f 132/132/132 174/174/174 173/173/173
f 133/133/133 175/175/175 174/174/174
f 134/134/134 176/176/176 175/175/175
f 135/135/135 177/177/177 176/176/176
f 136/136/136 178/178/178 177/177/177
f 137/137/137 179/179/179 178/178/178
f 138/138/138 180/180/180 179/179/179
f 139/139/139 181/181/181 180/180/180
f 140/140/140 182/182/182 181/181/181
f 141/141/141 183/183/183 182/182/182
f 142/142/142 184/184/184 183/183/183
f 143/143/143 185/185/185 184/184/184
f 144/144/144 186/186/186 185/185/185
f 145/145/145 187/187/187 186/186/186
f 146/146/146 188/188/188 187/187/187
f 147/147/147 189/189/189 188/188/188
f 148/148/148 190/190/190 189/189/189
f 149/149/149 191/191/191 190/190/190
f 150/150/150 192/192/192 191/191/191
f 151/151/151 193/193/193 192/192/192
f 152/152/152 194/194/194 193/193/193
f 153/153/153 195/195/195 194/194/194
f 154/154/154 196/196/196 195/195/195
f 155/155/155 197/197/197 196/196/196
f 156/156/156 198/198/198 197/197/197
f 157/157/157 199/199/199 198/198/198
f 158/158/158 200/200/200 199/199/199
f 159/159/159 201/201/201 200/200/200
f 160/160/160 202/202/202 201/201/201
f 161/161/161 203/203/203 202/202/202
f 162/162/162 204/204/204 203/203/203
f 163/163/163 205/205/205 204/204/204
f 165/165/165 207/207/207 206/206/206
f 166/166/166 208/208/208 207/207/207
f 167/167/167 209/209/209 208/208/208
f 168/168/168 210/210/210 209/209/209
f 169/169/169 211/211/211 210/210/210
f 170/170/170 212/212/212 211/211/211
f 171/171/171 213/213/213 212/212/212
f 172/172/172 214/214/214 213/213/213
f 173/173/173 215/215/215 214/214/214
f 174/174/174 216/216/216 215/215/215
f 175/175/175 217/217/217 216/216/216
f 176/176/176 218/218/218 217/217/217
f 177/177/177 219/219/219 218/218/218
f 178/178/178 220/220/220 219/219/219
f 179/179/179 221/221/221 220/220/220
f 180/180/180 222/222/222 221/221/221
f 181/181/181 223/223/223 222/222/222
f 182/182/182 224/224/224 223/223/223
f 183/183/183 225/225/225 224/224/224
f 184/184/184 226/226/226 225/225/225
f 185/185/185 227/227/227 226/226/226
f 186/186/186 228/228/228 227/227/227
f 187/187/187 229/229/229 228/228/228
f 188/188/188 230/230/230 229/229/229
f 189/189/189 231/231/231 230/230/230
f 190/190/190 232/232/232 231/231/231
f 191/191/191 233/233/233 232/232/232
f 192/192/192 234/234/234 233/233/233
f 193/193/193 235/235/235 234/234/234
f 194/194/194 236/236/236 235/235/235
f 195/195/195 237/237/237 236/236/236
f 196/196/196 238/238/238 237/237/237
f 197/197/197 239/239/239 238/238/238
f 198/198/198 240/240/240 239/239/239
f 199/199/199 241/241/241 240/240/240
f 200/200/200 242/242/242 241/241/241
f 201/201/201 243/243/243 242/242/242
f 202/202/202 244/244/244 243/243/243
f 203/203/203 245/245/245 244/244/244
f 204/204/204 246/246/246 245/245/245
f 206/206/206 248/248/248 247/247/247
f 207/207/207 249/249/249 248/248/248
f 208/208/208 250/250/250 249/249/249
f 209/209/209 251/251/251 250/250/250
f 210/210/210 252/252/252 251/251/251
f 211/211/211 253/253/253 252/252/252
f 212/212/212 254/254/254 253/253/253
f 213/213/213 255/255/255 254/254/254
f 214/214/214 256/256/256 255/255/255
f 215/215/215 257/257/257 256/256/256
f 216/216/216 258/258/258 257/257/257
f 217/217/217 259/259/259 258/258/258
f 218/218/218 260/260/260 259/259/259
f 219/219/219 261/261/261 260/260/260
f 220/220/220 262/262/262 261/261/261
f 221/221/221 263/263/263 262/262/262
f 222/222/222 264/264/264 263/263/263
f 223/223/223 265/265/265 264/264/264
f 224/224/224 266/266/266 265/265/265
f 225/225/225 267/267/267 266/266/266
f 226/226/226 268/268/268 267/267/267
f 227/227/227 269/269/269 268/268/268
f 228/228/228 270/270/270 269/269/269
f 229/229/229 271/271/271 270/270/270
f 230/230/230 272/272/272 271/271/271
f 231/231/231 273/273/273 272/272/272
f 232/232/232 274/274/274 273/273/273
f 233/233/233 275/275/275 274/274/274
f 234/234/234 276/276/276 275/275/275
f 235/235/235 277/277/277 276/276/276
f 236/236/236 278/278/278 277/277/277
f 237/237/237 279/279/279 278/278/278
f 238/238/238 280/280/280 279/279/279
f 239/239/239 281/281/281 280/280/280
f 240/240/240 282/282/282 281/281/281
f 241/241/241 283/283/283 282/282/282
f 242/242/242 284/284/284 283/283/283
f 243/243/243 285/285/285 284/284/284
f 244/244/244 286/286/286 285/285/285
f 245/245/245 287/287/287 286/286/286
f 247/247/247 289/289/289 288/288/288
f 248/248/248 290/290/290 289/289/289
f 249/249/249 291/291/291 290/290/290
f 250/250/250 292/292/292 291/291/291
f 251/251/251 293/293/293 292/292/292
f 252/252/252 294/294/294 293/293/293
f 253/253/253 295/295/295 294/294/294
f 254/254/254 296/296/296 295/295/295
f 255/255/255 297/297/297 296/296/296
f 256/256/256 298/298/298 297/297/297
f 257/257/257 299/299/299 298/298/298
f 258/258/258 300/300/300 299/299/299
f 259/259/259 301/301/301 300/300/300
f 260/260/260 302/302/302 301/301/301
f 261/261/261 303/303/303 302/302/302
f 262/262/262 304/304/304 303/303/303
f 263/263/263 305/305/305 304/304/304
f 264/264/264 306/306/306 305/305/305
f 265/265/265 307/307/307 306/306/306
f 266/266/266 308/308/308 307/307/307
f 267/267/267 309/309/309 308/308/308
f 268/268/268 310/310/310 309/309/309
f 269/269/269 311/311/311 310/310/310
f 270/270/270 312/312/312 311/311/311
f 271/271/271 313/313/313 312/312/312
f 272/272/272 314/314/314 313/313/313
f 273/273/273 315/315/315 314/314/314
f 274/274/274 316/316/316 315/315/315
f 275/275/275 317/317/317 316/316/316
f 276/276/276 318/318/318 317/317/317
f 277/277/277 319/319/319 318/318/318
f 278/278/278 320/320/320 319/319/319
f 279/279/279 321/321/321 320/320/320
f 280/280/280 322/322/322 321/321/321
f 281/281/281 323/323/323 322/322/322
f 282/282/282 324/324/324 323/323/323
f 283/283/283 325/325/325 324/324/324
f 284/284/284 326/326/326 325/325/325
f 285/285/285 327/327/327 326/326/326
f 286/286/286 328/328/328 327/327/327
f 288/288/288 330/330/330 329/329/329
f 289/289/289 331/331/331 330/330/330
f 290/290/290 332/332/332 331/331/331
f 291/291/291 333/333/333 332/332/332
f 292/292/292 334/334/334 333/333/333
f 293/293/293 335/335/335 334/334/334
f 294/294/294 336/336/336 335/335/335
f 295/295/295 337/337/337 336/336/336
f 296/296/296 338/338/338 337/337/337
f 297/297/297 339/339/339 338/338/338
f 298/298/298 340/340/340 339/339/339
f 299/299/299 341/341/341 340/340/340
f 300/300/300 342/342/342 341/341/341
f 301/301/301 343/343/343 342/342/342
f 302/302/302 344/344/344 343/343/343
f 303/303/303 345/345/345 344/344/344
f 304/304/304 346/346/346 345/345/345
f 305/305/305 347/347/347 346/346/346
f 306/306/306 348/348/348 347/347/347
f 307/307/307 349/349/349 348/348/348
f 308/308/308 350/350/350 349/349/349
f 309/309/309 351/351/351 350/350/350
f 310/310/310 352/352/352 351/351/351
f 311/311/311 353/353/353 352/352/352
f 312/312/312 354/354/354 353/353/353
f 313/313/313 355/355/355 354/354/354
f 314/314/314 356/356/356 355/355/355
f 315/315/315 357/357/357 356/356/356
f 316/316/316 358/358/358 357/357/357
f 317/317/317 359/359/359 358/358/358
f 318/318/318 360/360/360 359/359/359
f 319/319/319 361/361/361 360/360/360
f 320/320/320 362/362/362 361/361/361
f 321/321/321 363/363/363 362/362/362
f 322/322/322 364/364/364 363/363/363
f 323/323/323 365/365/365 364/364/364
f 324/324/324 366/366/366 365/365/365
f 325/325/325 367/367/367 366/366/366
f 326/326/326 368/368/368 367/367/367
f 327/327/327 369/369/369 368/368/368
f 329/329/329 371/371/371 370/370/370
f 330/330/330 372/372/372 371/371/371
f 331/331/331 373/373/373 372/372/372
f 332/332/332 374/374/374 373/373/373
f 333/333/333 375/375/375 374/374/374
f 334/334/334 376/376/376 375/375/375
f 335/335/335 377/377/377 376/376/376
f 336/336/336 378/378/378 377/377/377
f 337/337/337 379/379/379 378/378/378
f 338/338/338 380/380/380 379/379/379
f 339/339/339 381/381/381 380/380/380
f 340/340/340 382/382/382 381/381/381
f 341/341/341 383/383/383 382/382/382
f 342/342/342 384/384/384 383/383/383
f 343/343/343 385/385/385 384/384/384
f 344/344/344 386/386/386 385/385/385
f 345/345/345 387/387/387 386/386/386
f 346/346/346 388/388/388 387/387/387
f 347/347/347 389/389/389 388/388/388
f 348/348/348 390/390/390 389/389/389
f 349/349/349 391/391/391 390/390/390
f 350/350/350 392/392/392 391/391/391
f 351/351/351 393/393/393 392/392/392
f 352/352/352 394/394/394 393/393/393
f 353/353/353 395/395/395 394/394/394
f 354/354/354 396/396/396 395/395/395
f 355/355/355 397/397/397 396/396/396
f 356/356/356 398/398/398 397/397/397
f 357/357/357 399/399/399 398/398/398
f 358/358/358 400/400/400 399/399/399
f 359/359/359 401/401/401 400/400/400
f 360/360/360 402/402/402 401/401/401
f 361/361/361 403/403/403 402/402/402
f 362/362/362 404/404/404 403/403/403
f 363/363/363 405/405/405 404/404/404
f 364/364/364 406/406/406 405/405/405
f 365/365/365 407/407/407 406/406/406
f 366/366/366 408/408/408 407/407/407
f 367/367/367 409/409/409 408/408/408
f 368/368/368 410/410/410 409/409/409
f 370/370/370 412/412/412 411/411/411
f 371/371/371 413/413/413 412/412/412
f 372/372/372 414/414/414 413/413/413
f 373/373/373 415/415/415 414/414/414
f 374/374/374 416/416/416 415/415/415
f 375/375/375 417/417/417 416/416/416
f 376/376/376 418/418/418 417/417/417
f 377/377/377 419/419/419 418/418/418
f 378/378/378 420/420/420 419/419/419
f 379/379/379 421/421/421 420/420/420
f 380/380/380 422/422/422 421/421/421
f 381/381/381 423/423/423 422/422/422
f 382/382/382 424/424/424 423/423/423
f 383/383/383 425/425/425 424/424/424
f 384/384/384 426/426/426 425/425/425
f 385/385/385 427/427/427 426/426/426
f 386/386/386 428/428/428 427/427/427
f 387/387/387 429/429/429 428/428/428
f 388/388/388 430/430/430 429/429/429
f 389/389/389 431/431/431 430/430/430
f 390/390/390 432/432/432 431/431/431
f 391/391/391 433/433/433 432/432/432
f 392/392/392 434/434/434 433/433/433
f 393/393/393 435/435/435 434/434/434
f 394/394/394 436/436/436 435/435/435
f 395/395/395 437/437/437 436/436/436
f 396/396/396 438/438/438 437/437/437
f 397/397/397 439/439/439 438/438/438
f 398/398/398 440/440/440 439/439/439
f 399/399/399 441/441/441 440/440/440
f 400/400/400 442/442/442 441/441/441
f 401/401/401 443/443/443 442/442/442
f 402/402/402 444/444/444 443/443/443
f 403/403/403 445/445/445 444/444/444
f 404/404/404 446/446/446 445/445/445
f 405/405/405 447/447/447 446/446/446
f 406/406/406 448/448/448 447/447/447
f 407/407/407 449/449/449 448/448/448
f 408/408/408 450/450/450 449/449/449
f 409/409/409 451/451/451 450/450/450
f 411/411/411 453/453/453 452/452/452
f 412/412/412 454/454/454 453/453/453
f 413/413/413 455/455/455 454/454/454
f 414/414/414 456/456/456 455/455/455
f 415/415/415 457/457/457 456/456/456
f 416/416/416 458/458/458 457/457/457
f 417/417/417 459/459/459 458/458/458
f 418/418/418 460/460/460 459/459/459
f 419/419/419 461/461/461 460/460/460
f 420/420/420 462/462/462 461/461/461
f 421/421/421 463/463/463 462/462/462
f 422/422/422 464/464/464 463/463/463
f 423/423/423 465/465/465 464/464/464
f 424/424/424 466/466/466 465/465/465
f 425/425/425 467/467/467 466/466/466
f 426/426/426 468/468/468 467/467/467
f 427/427/427 469/469/469 468/468/468
f 428/428/428 470/470/470 469/469/469
f 429/429/429 471/471/471 470/470/470
f 430/430/430 472/472/472 471/471/471
f 431/431/431 473/473/473 472/472/472
f 432/432/432 474/474/474 473/473/473
f 433/433/433 475/475/475 474/474/474
f 434/434/434 476/476/476 475/475/475
f 435/435/435 477/477/477 476/476/476
f 436/436/436 478/478/478 477/477/477
f 437/437/437 479/479/479 478/478/478
f 438/438/438 480/480/480 479/479/479
f 439/439/439 481/481/481 480/480/480
f 440/440/440 482/482/482 481/481/481
f 441/441/441 483/483/483 482/482/482
f 442/442/442 484/484/484 483/483/483
f 443/443/443 485/485/485 484/484/484
f 444/444/444 486/486/486 485/485/485
f 445/445/445 487/487/487 486/486/486
f 446/446/446 488/488/488 487/487/487
f 447/447/447 489/489/489 488/488/488
f 448/448/448 490/490/490 489/489/489
f 449/449/449 491/491/491 490/490/490
f 450/450/450 492/492/492 491/491/491
f 452/452/452 494/494/494 493/493/493
f 453/453/453 495/495/495 494/494/494
f 454/454/454 496/496/496 495/495/495
f 455/455/455 497/497/497 496/496/496
f 456/456/456 498/498/498 497/497/497
f 457/457/457 499/499/499 498/498/498
f 458/458/458 500/500/500 499/499/499
f 459/459/459 501/501/501 500/500/500
f 460/460/460 502/502/502 501/501/501
f 461/461/461 503/503/503 502/502/502
f 462/462/462 504/504/504 503/503/503
f 463/463/463 505/505/505 504/504/504
f 464/464/464 506/506/506 505/505/505
f 465/465/465 507/507/507 506/506/506
f 466/466/466 508/508/508 507/507/507
f 467/467/467 509/509/509 508/508/508
f 468/468/468 510/510/510 509/509/509
f 469/469/469 511/511/511 510/510/510
f 470/470/470 512/512/512 511/511/511
f 471/471/471 513/513/513 512/512/512
f 472/472/472 514/514/514 513/513/513
f 473/473/473 515/515/515 514/514/514
f 474/474/474 516/516/516 515/515/515
f 475/475/475 517/517/517 516/516/516
f 476/476/476 518/518/518 517/517/517
f 477/477/477 519/519/519 518/518/518
f 478/478/478 520/520/520 519/519/519
f 479/479/479 521/521/521 520/520/520
f 480/480/480 522/522/522 521/521/521
f 481/481/481 523/523/523 522/522/522
f 482/482/482 524/524/524 523/523/523
f 483/483/483 525/525/525 524/524/524
f 484/484/484 526/526/526 525/525/525
f 485/485/485 527/527/527 526/526/526
f 486/486/486 528/528/528 527/527/527
f 487/487/487 529/529/529 528/528/528
f 488/488/488 530/530/530 529/529/529
f 489/489/489 531/531/531 530/530/530
f 490/490/490 532/532/532 531/531/531
f 491/491/491 533/533/533 532/532/532
f 493/493/493 535/535/535 534/534/534
f 494/494/494 536/536/536 535/535/535
f 495/495/495 537/537/537 536/536/536
f 496/496/496 538/538/538 537/537/537
f 497/497/497 539/539/539 538/538/538
f 498/498/498 540/540/540 539/539/539
f 499/499/499 541/541/541 540/540/540
f 500/500/500 542/542/542 541/541/541
f 501/501/501 543/543/543 542/542/542
f 502/502/502 544/544/544 543/543/543
f 503/503/503 545/545/545 544/544/544
f 504/504/504 546/546/546 545/545/545
f 505/505/505 547/547/547 546/546/546
f 506/506/506 548/548/548 547/547/547
f 507/507/507 549/549/549 548/548/548
f 508/508/508 550/550/550 549/549/549
f 509/509/509 551/551/551 550/550/550
f 510/510/510 552/552/552 551/551/551
f 511/511/511 553/553/553 552/552/552
f 512/512/512 554/554/554 553/553/553
f 513/513/513 555/555/555 554/554/554
f 514/514/514 556/556/556 555/555/555
f 515/515/515 557/557/557 556/556/556
f 516/516/516 558/558/558 557/557/557
f 517/517/517 559/559/559 558/558/558
f 518/518/518 560/560/560 559/559/559
f 519/519/519 561/561/561 560/560/560
f 520/520/520 562/562/562 561/561/561
f 521/521/521 563/563/563 562/562/562
f 522/522/522 564/564/564 563/563/563
f 523/523/523 565/565/565 564/564/564
f 524/524/524 566/566/566 565/565/565
f 525/525/525 567/567/567 566/566/566
f 526/526/526 568/568/568 567/567/567
f 527/527/527 569/569/569 568/568/568
f 528/528/528 570/570/570 569/569/569
f 529/529/529 571/571/571 570/570/570
f 530/530/530 572/572/572 571/571/571
f 531/531/531 573/573/573 572/572/572
f 532/532/532 574/574/574 573/573/573
f 534/534/534 576/576/576 575/575/575
f 535/535/535 577/577/577 576/576/576
f 536/536/536 578/578/578 577/577/577
f 537/537/537 579/579/579 578/578/578
f 538/538/538 580/580/580 579/579/579
f 539/539/539 581/581/581 580/580/580
f 540/540/540 582/582/582 581/581/581
f 541/541/541 583/583/583 582/582/582
f 542/542/542 584/584/584 583/583/583
f 543/543/543 585/585/585 584/584/584
f 544/544/544 586/586/586 585/585/585
f 545/545/545 587/587/587 586/586/586
f 546/546/546 588/588/588 587/587/587
f 547/547/547 589/589/589 588/588/588
f 548/548/548 590/590/590 589/589/589
f 549/549/549 591/591/591 590/590/590
f 550/550/550 592/592/592 591/591/591
f 551/551/551 593/593/593 592/592/592
f 552/552/552 594/594/594 593/593/593
f 553/553/553 595/595/595 594/594/594
f 554/554/554 596/596/596 595/595/595
f 555/555/555 597/597/597 596/596/596
f 556/556/556 598/598/598 597/597/597
f 557/557/557 599/599/599 598/598/598
f 558/558/558 600/600/600 599/599/599
f 559/559/559 601/601/601 600/600/600
f 560/560/560 602/602/602 601/601/601
f 561/561/561 603/603/603 602/602/602
f 562/562/562 604/604/604 603/603/603
f 563/563/563 605/605/605 604/604/604
f 564/564/564 606/606/606 605/605/605
f 565/565/565 607/607/607 606/606/606
f 566/566/566 608/608/608 607/607/607
f 567/567/567 609/609/609 608/608/608
f 568/568/568 610/610/610 609/609/609
f 569/569/569 611/611/611 610/610/610
f 570/570/570 612/612/612 611/611/611
f 571/571/571 613/613/613 612/612/612
f 572/572/572 614/614/614 613/613/613
f 573/573/573 615/615/615 614/614/614
f 575/575/575 617/617/617 616/616/616
f 576/576/576 618/618/618 617/617/617
f 577/577/577 619/619/619 618/618/618
f 578/578/578 620/620/620 619/619/619
f 579/579/579 621/621/621 620/620/620
f 580/580/580 622/622/622 621/621/621
f 581/581/581 623/623/623 622/622/622
f 582/582/582 624/624/624 623/623/623
f 583/583/583 625/625/625 624/624/624
f 584/584/584 626/626/626 625/625/625
f 585/585/585 627/627/627 626/626/626
f 586/586/586 628/628/628 627/627/627
f 587/587/587 629/629/629 628/628/628
f 588/588/588 630/630/630 629/629/629
f 589/589/589 631/631/631 630/630/630
f 590/590/590 632/632/632 631/631/631
f 591/591/591 633/633/633 632/632/632
f 592/592/592 634/634/634 633/633/633
f 593/593/593 635/635/635 634/634/634
f 594/594/594 636/636/636 635/635/635
f 595/595/595 637/637/637 636/636/636
f 596/596/596 638/638/638 637/637/637
f 597/597/597 639/639/639 638/638/638
f 598/598/598 640/640/640 639/639/639
f 599/599/599 641/641/641 640/640/640
f 600/600/600 642/642/642 641/641/641
f 601/601/601 643/643/643 642/642/642
f 602/602/602 644/644/644 643/643/643
f 603/603/603 645/645/645 644/644/644
f 604/604/604 646/646/646 645/645/645
f 605/605/605 647/647/647 646/646/646
f 606/606/606 648/648/648 647/647/647
f 607/607/607 649/649/649 648/648/648
f 608/608/608 650/650/650 649/649/649
f 609/609/609 651/651/651 650/650/650
f 610/610/610 652/652/652 651/651/651
f 611/611/611 653/653/653 652/652/652
f 612/612/612 654/654/654 653/653/653
f 613/613/613 655/655/655 654/654/654
f 614/614/614 656/656/656 655/655/655
f 616/616/616 658/658/658 657/657/657
f 617/617/617 659/659/659 658/658/658
f 618/618/618 660/660/660 659/659/659
f 619/619/619 661/661/661 660/660/660
f 620/620/620 662/662/662 661/661/661
f 621/621/621 663/663/663 662/662/662
f 622/622/622 664/664/664 663/663/663
f 623/623/623 665/665/665 664/664/664
f 624/624/624 666/666/666 665/665/665
f 625/625/625 667/667/667 666/666/666
f 626/626/626 668/668/668 667/667/667
f 627/627/627 669/669/669 668/668/668
f 628/628/628 670/670/670 669/669/669
f 629/629/629 671/671/671 670/670/670
f 630/630/630 672/672/672 671/671/671
f 631/631/631 673/673/673 672/672/672
f 632/632/632 674/674/674 673/673/673
f 633/633/633 675/675/675 674/674/674
f 634/634/634 676/676/676 675/675/675
f 635/635/635 677/677/677 676/676/676
f 636/636/636 678/678/678 677/677/677
f 637/637/637 679/679/679 678/678/678
f 638/638/638 680/680/680 679/679/679
f 639/639/639 681/681/681 680/680/680
f 640/640/640 682/682/682 681/681/681
f 641/641/641 683/683/683 682/682/682
f 642/642/642 684/684/684 683/683/683
f 643/643/643 685/685/685 684/684/684
f 644/644/644 686/686/686 685/685/685
f 645/645/645 687/687/687 686/686/686
f 646/646/646 688/688/688 687/687/687
f 647/647/647 689/689/689 688/688/688
f 648/648/648 690/690/690 689/689/689
f 649/649/649 691/691/691 690/690/690
f 650/650/650 692/692/692 691/691/691
f 651/651/651 693/693/693 692/692/692
f 652/652/652 694/694/694 693/693/693
f 653/653/653 695/695/695 694/694/694
f 654/654/654 696/696/696 695/695/695
f 655/655/655 697/697/697 696/696/696
